<?xml version="1.0" encoding="UTF-8"?>
<svg version="1.1" xmlns="http://www.w3.org/2000/svg" width="720" height="405">
<path d="M0 0 C133.65 0 267.3 0 405 0 C405 133.65 405 267.3 405 405 C271.35 405 137.7 405 0 405 C0 271.35 0 137.7 0 0 Z " fill="#000000" transform="translate(158,0)"/>
<path d="M0 0 C4.82863589 2.21657381 7.69907357 4.98783773 10.73828125 9.31640625 C11.73833429 12.31656537 11.8540371 14.29064381 11.8359375 17.421875 C11.83271484 18.40478516 11.82949219 19.38769531 11.82617188 20.40039062 C11.81360352 21.93663086 11.81360352 21.93663086 11.80078125 23.50390625 C11.79626953 24.53966797 11.79175781 25.57542969 11.78710938 26.64257812 C11.77532135 29.20057891 11.7588664 31.75846358 11.73828125 34.31640625 C12.846875 33.99414062 13.95546875 33.671875 15.09765625 33.33984375 C27.17490904 30.33911911 41.50203553 30.97458451 52.73828125 36.31640625 C53.65480469 36.71730469 54.57132812 37.11820313 55.515625 37.53125 C66.65209747 42.91986571 75.43241376 52.1757906 80.73828125 63.31640625 C81.14949219 64.14785156 81.56070313 64.97929687 81.984375 65.8359375 C84.79009894 72.62210025 85.11887591 79.19384493 85.17578125 86.44140625 C85.18593262 87.35954102 85.19608398 88.27767578 85.20654297 89.22363281 C85.02371523 103.59749805 78.95250883 115.67636703 69.16015625 126.02734375 C55.85778428 138.6002308 41.35586004 141.98045034 23.5703125 141.6328125 C17.728157 141.36362508 12.93331689 139.99317038 7.73828125 137.31640625 C6.97773438 136.96578125 6.2171875 136.61515625 5.43359375 136.25390625 C-8.72481081 129.19919948 -17.79559732 116.82138511 -23.26171875 102.31640625 C-25.86553005 93.47951925 -25.58969661 84.56446991 -25.59765625 75.4375 C-25.60409347 73.69832757 -25.6108225 71.9591562 -25.61782837 70.21998596 C-25.62975469 66.58811939 -25.6335137 62.95634764 -25.63232422 59.32446289 C-25.6321206 54.68542739 -25.65948764 50.0470015 -25.69386864 45.40811062 C-25.71616473 41.82116431 -25.72016103 38.23436453 -25.71910477 34.64735603 C-25.72145414 32.93742829 -25.73024002 31.22749609 -25.7457695 29.51763725 C-25.894452 11.46714554 -25.894452 11.46714554 -19.41015625 4.2578125 C-18.82492188 3.80277344 -18.2396875 3.34773438 -17.63671875 2.87890625 C-17.04632813 2.40582031 -16.4559375 1.93273437 -15.84765625 1.4453125 C-11.24013567 -1.83442505 -5.29473002 -1.600307 0 0 Z " fill="#F5488C" transform="translate(271.26171875,83.68359375)"/>
<path d="M0 0 C0.91813477 -0.01015137 1.83626953 -0.02030273 2.78222656 -0.03076172 C16.84468636 0.14810511 29.58431678 5.96132583 39.75 15.625 C51.04058809 27.65622433 55.35388232 40.32108269 55.30859375 56.60546875 C55.3138356 57.72512527 55.31907745 58.8447818 55.32447815 59.99836731 C55.33085812 62.34712906 55.32961407 64.69592295 55.32104492 67.04467773 C55.31249746 70.62606597 55.34141531 74.20587659 55.37304688 77.78710938 C55.37465831 80.08072869 55.37408245 82.37435081 55.37109375 84.66796875 C55.38232773 85.72960739 55.39356171 86.79124603 55.40513611 87.88505554 C55.34643562 94.17356945 54.6762719 99.26367612 50.875 104.4375 C46.20678722 108.1530163 42.47115075 109.59472425 36.5625 109.75 C35.17611328 109.80607422 35.17611328 109.80607422 33.76171875 109.86328125 C30.875 109.4375 30.875 109.4375 27.96484375 107.30859375 C24.98377064 105.05714396 24.98377064 105.05714396 21.4921875 105.921875 C20.25726563 106.33953125 19.02234375 106.7571875 17.75 107.1875 C4.82516622 111.04155054 -9.89492432 111.73909832 -22.125 105.4375 C-22.88554687 105.086875 -23.64609375 104.73625 -24.4296875 104.375 C-38.727245 97.25095751 -47.42147962 84.94710723 -53.125 70.4375 C-56.58942622 55.59429096 -55.23482639 39.4815856 -47.29296875 26.42578125 C-35.56534962 9.47046601 -20.79465984 0.16327247 0 0 Z " fill="#7E37EC" transform="translate(419.125,115.5625)"/>
<path d="M0 0 C0.00879936 1.33185333 0.00879936 1.33185333 0.01777649 2.69061279 C0.07595266 11.10468152 0.14816977 19.51849181 0.23571491 27.9323082 C0.28022735 32.25677333 0.31952419 36.58114839 0.34643555 40.90576172 C0.37266119 45.08809309 0.41319561 49.27007419 0.46318626 53.45218658 C0.47972596 55.03872533 0.49131979 56.62532448 0.49761391 58.21193695 C0.57261327 75.39770132 3.67712878 91.157098 15.85546875 104.16015625 C20.46675197 108.11628448 25.71350032 111.04558692 31 114 C31.78246094 114.44730469 32.56492187 114.89460938 33.37109375 115.35546875 C44.12563229 121.16250028 60.71704522 120.66172096 72.25 117.25 C76.8386216 115.61329421 80.87259364 113.56816396 85 111 C85.66 111 86.32 111 87 111 C83.69814468 121.56593702 74.30300231 129.91037673 64.8125 134.95092773 C52.10705571 141.42858219 37.61235471 143.23863811 23.57421875 140.27734375 C20.92216882 139.35081428 18.49548813 138.28581083 16 137 C15.23945313 136.649375 14.47890625 136.29875 13.6953125 135.9375 C-0.46309206 128.88279323 -9.53387857 116.50497886 -15 102 C-17.6038113 93.163113 -17.32797786 84.24806366 -17.3359375 75.12109375 C-17.34237472 73.38192132 -17.34910375 71.64274995 -17.35610962 69.90357971 C-17.36803594 66.27171314 -17.37179495 62.63994139 -17.37060547 59.00805664 C-17.37040185 54.36902114 -17.39776889 49.73059525 -17.43214989 45.09170437 C-17.45444598 41.50475806 -17.45844228 37.91795828 -17.45738602 34.33094978 C-17.45973539 32.62102204 -17.46852127 30.91108984 -17.48405075 29.201231 C-17.62850463 11.66410613 -17.62850463 11.66410613 -11.2890625 3.90625 C-10.73992187 3.4421875 -10.19078125 2.978125 -9.625 2.5 C-9.08101562 2.0153125 -8.53703125 1.530625 -7.9765625 1.03125 C-5.28112747 -0.37506393 -2.99916192 -0.06720241 0 0 Z " fill="#F258A6" transform="translate(263,84)"/>
<path d="M0 0 C4.79724112 2.14401838 7.64811967 4.41142075 9.91015625 9.3125 C10.51438533 13.76978406 9.80984418 17.94258718 8.91015625 22.3125 C9.24015625 22.9725 9.57015625 23.6325 9.91015625 24.3125 C10.30786952 29.08505923 10.38469054 31.39732672 8.16015625 35.6875 C4.88431248 39.50931773 2.17167929 40.49053044 -2.77734375 40.875 C-5.73165663 40.90756307 -5.73165663 40.90756307 -8.08984375 42.3125 C-9.7560149 42.35313832 -11.4237247 42.355221 -13.08984375 42.3125 C-13.74984375 40.6625 -14.40984375 39.0125 -15.08984375 37.3125 C-12.7319398 34.24722486 -11.37943325 32.59207513 -7.53125 31.7578125 C-5.04581465 31.52513345 -2.58524661 31.36579987 -0.08984375 31.3125 C0.24015625 30.3225 0.57015625 29.3325 0.91015625 28.3125 C-0.26740234 28.41691406 -0.26740234 28.41691406 -1.46875 28.5234375 C-11.12181692 29.02089616 -11.12181692 29.02089616 -15.27734375 25.5 C-18.73419555 22.09361319 -19.30843972 18.81205414 -19.52734375 14.0625 C-19.49299309 8.87554971 -18.3626064 6.33916647 -14.79296875 2.65234375 C-10.19277357 -0.96661714 -5.69981728 -1.87508008 0 0 Z " fill="#F5F5F5" transform="translate(420.08984375,245.6875)"/>
<path d="M0 0 C3.125 0.375 3.125 0.375 6 1 C6 3.97 6 6.94 6 10 C6.99 9.67 7.98 9.34 9 9 C14.91003863 8.42058445 19.25400375 9.49969908 24 13 C26.76735104 16.13168017 27.88648404 19.30629135 28.5625 23.4375 C27.71242349 28.82131791 25.47079047 32.7560563 21.42578125 36.4296875 C17.44854079 39.11826497 13.91294304 39.52509483 9.21484375 38.74609375 C4.77794025 37.25147546 1.38110302 34.22820472 -1.0715332 30.27124023 C-2.24615063 27.39785976 -2.25899632 25.0939358 -2.265625 21.9921875 C-2.26820313 20.84105469 -2.27078125 19.68992188 -2.2734375 18.50390625 C-2.26570313 17.30636719 -2.25796875 16.10882813 -2.25 14.875 C-2.25773437 13.66972656 -2.26546875 12.46445313 -2.2734375 11.22265625 C-2.27085937 10.07410156 -2.26828125 8.92554688 -2.265625 7.7421875 C-2.26336914 6.6888623 -2.26111328 5.63553711 -2.25878906 4.55029297 C-2 2 -2 2 0 0 Z " fill="#F6F6F6" transform="translate(293,236)"/>
<path d="M0 0 C4.55555556 0.55555556 4.55555556 0.55555556 6 2 C6.07179964 3.51928038 6.08392007 5.04167482 6.0625 6.5625 C6.05347656 7.38878906 6.04445313 8.21507812 6.03515625 9.06640625 C6.02355469 9.70449219 6.01195312 10.34257812 6 11 C6.66 10.67 7.32 10.34 8 10 C12.51929654 9.58406474 16.64787033 9.44151166 20.875 11.1875 C24.84679076 14.57520389 27.78583799 17.85837987 28.3125 23.125 C27.81882082 29.24662177 25.80715648 33.31892421 21.3125 37.5 C17.03099436 39.43879501 13.62439716 39.82193055 9 39 C3.6964772 36.29820537 -0.09832298 32.70503105 -2 27 C-2.23341087 22.81625734 -2.18516858 18.62706549 -2.1875 14.4375 C-2.19974609 13.27541016 -2.21199219 12.11332031 -2.22460938 10.91601562 C-2.22654297 9.80806641 -2.22847656 8.70011719 -2.23046875 7.55859375 C-2.23457764 6.54079834 -2.23868652 5.52300293 -2.24291992 4.47436523 C-2 2 -2 2 0 0 Z " fill="#F6F6F6" transform="translate(306,283)"/>
<path d="M0 0 C4.55555556 0.55555556 4.55555556 0.55555556 6 2 C6.3394756 6.36677351 6.32524706 10.74674136 6.375 15.125 C6.41238281 16.34960938 6.44976562 17.57421875 6.48828125 18.8359375 C6.5606221 26.26293121 6.27987694 30.58966099 1 36 C-3.72628301 38.71323654 -7.57838932 39.69002318 -13 39 C-17.77923201 36.56352878 -20.66932175 33.84063945 -23 29 C-23.80570277 23.95202549 -23.57605128 20.1734378 -21.3125 15.5625 C-18.10500342 12.00824703 -16.16016481 10.13729861 -11.234375 9.82421875 C-8.48218906 9.81363342 -5.74884248 9.87001971 -3 10 C-2.87625 8.72125 -2.7525 7.4425 -2.625 6.125 C-2.25 2.25 -2.25 2.25 0 0 Z " fill="#F8F8F8" transform="translate(444,283)"/>
<path d="M0 0 C4.04921533 2.47070766 7.40172691 5.46272238 9 10 C9.28395361 12.87956646 9.27910746 15.73365911 9.25 18.625 C9.25773437 19.40101563 9.26546875 20.17703125 9.2734375 20.9765625 C9.25340266 26.74659734 9.25340266 26.74659734 7 29 C4.66055264 28.71269945 2.3260857 28.38063221 0 28 C-0.33 28.33 -0.66 28.66 -1 29 C-5.63297667 29.59497174 -9.11835858 29.44913808 -13.3125 27.3125 C-17.51542003 23.69603393 -20.05922287 21.13115077 -20.9375 15.5625 C-21.22471031 11.23280451 -20.54811499 8.61667934 -18 5 C-12.44951156 -0.58073633 -7.55791988 -2.05555366 0 0 Z " fill="#F5F5F5" transform="translate(409,293)"/>
<path d="M0 0 C4.20106629 1.90957559 7.13758992 4.44640625 9.30859375 8.59765625 C10.89528498 14.11073595 10.73536854 20.3555496 10 26 C8.66015625 27.9765625 8.66015625 27.9765625 7 29 C4 28.625 4 28.625 1 28 C0.01 28.33 -0.98 28.66 -2 29 C-6.80231569 29.48023157 -9.76263433 29.55540265 -13.8125 26.8125 C-17.28798926 23.96386839 -19.62926405 21.49783343 -20.3125 16.89453125 C-20.6784588 10.06711235 -18.36010881 6.71770105 -13.9375 1.625 C-9.38668052 -0.89247461 -5.0799046 -0.72463345 0 0 Z " fill="#F4F4F4" transform="translate(291,293)"/>
<path d="M0 0 C3.45434821 2.9608699 5.31587724 4.97165078 5.94140625 9.58203125 C6.20821356 15.32269186 5.54081688 18.79031967 1.625 23.25 C-2.37786685 26.76767087 -5.96995797 27.6039022 -11.3125 27.53515625 C-15.6045991 26.94174103 -18.41927497 24.33754917 -21.1875 21.1875 C-23.88696471 16.78311022 -23.97536988 12.25880015 -23.375 7.25 C-21.29568144 2.84184466 -18.66058089 0.08088269 -14.3671875 -2.12109375 C-9.20543644 -3.75058771 -4.65895089 -2.41575231 0 0 Z " fill="#F4F4F4" transform="translate(379.375,294.75)"/>
<path d="M0 0 C4.33098016 2.22125377 6.89678723 4.8746022 9.0703125 9.30859375 C9.3828125 13.12109375 9.3828125 13.12109375 9.0703125 16.30859375 C7.55610249 17.82280376 6.14558482 17.52169231 4.03515625 17.625 C3.22626953 17.66689453 2.41738281 17.70878906 1.58398438 17.75195312 C0.73384766 17.79126953 -0.11628906 17.83058594 -0.9921875 17.87109375 C-1.84619141 17.91427734 -2.70019531 17.95746094 -3.58007812 18.00195312 C-5.69640787 18.10836077 -7.81302563 18.20901106 -9.9296875 18.30859375 C-6.70159786 20.46065351 -6.03362337 20.50188197 -2.3671875 20.30859375 C0.01171875 20.18359375 0.01171875 20.18359375 2.0703125 20.30859375 C4.0703125 22.30859375 4.0703125 22.30859375 4.0703125 24.24609375 C2.50773248 27.46891504 0.34723595 28.07201886 -2.9296875 29.30859375 C-7.44968731 29.98178521 -10.45166462 29.02654406 -14.31640625 26.55859375 C-17.7433706 23.90331871 -19.59009389 21.24684032 -20.34375 16.9453125 C-20.65698475 11.51316254 -19.87877064 7.9015721 -16.34375 3.71484375 C-11.65320543 -0.94978621 -6.27713695 -2.24909563 0 0 Z " fill="#F5F5F5" transform="translate(342.9296875,245.69140625)"/>
<path d="M0 0 C3.30468569 2.20312379 5.89030565 4.39223453 7.8125 7.875 C8.42416148 11.17389663 8.33424149 14.34533609 8.1875 17.6875 C8.16623047 18.99364258 8.16623047 18.99364258 8.14453125 20.32617188 C7.99568536 26.69181464 7.99568536 26.69181464 6.8125 27.875 C4.375 28.0625 4.375 28.0625 1.8125 27.875 C-1.41900962 24.64349038 -0.58556416 20.0233146 -0.66601562 15.640625 C-0.7381536 13.71225371 -0.9542462 11.79057104 -1.1875 9.875 C-4.63995824 7.57336118 -6.13488713 7.53009678 -10.1875 7.875 C-13.10401646 10.79151646 -12.57114367 13.95995177 -12.6875 17.875 C-12.91722973 25.60472973 -12.91722973 25.60472973 -15.1875 27.875 C-17.75 28.0625 -17.75 28.0625 -20.1875 27.875 C-22.42538937 25.63711063 -21.56025956 20.7503846 -21.625 17.75 C-21.67076172 16.90695312 -21.71652344 16.06390625 -21.76367188 15.1953125 C-21.86610121 9.45926969 -20.82239819 6.44200667 -16.87524414 2.25439453 C-11.6938461 -1.98036591 -6.14882291 -2.17017279 0 0 Z " fill="#F7F7F7" transform="translate(389.1875,246.125)"/>
<path d="M0 0 C1.125 4.75 1.125 4.75 0 7 C-1.134375 7.309375 -2.26875 7.61875 -3.4375 7.9375 C-7.23216998 8.65621357 -7.23216998 8.65621357 -9 12 C-9.31630679 15.22417264 -9.46293674 18.40372817 -9.56640625 21.63867188 C-9.79937211 26.79937211 -9.79937211 26.79937211 -12 29 C-16.55555556 28.44444444 -16.55555556 28.44444444 -18 27 C-18.18139888 24.25522679 -18.27824606 21.55966588 -18.3125 18.8125 C-18.34150391 18.05646484 -18.37050781 17.30042969 -18.40039062 16.52148438 C-18.46054733 11.18604764 -17.5128325 8.23962543 -14 4 C-9.20232338 -0.14344799 -6.06966268 -0.41859743 0 0 Z " fill="#F5F5F5" transform="translate(354,293)"/>
<path d="M0 0 C2.93453261 0.36681658 3.86437246 0.86437246 6 3 C6.25878906 5.38256836 6.25878906 5.38256836 6.265625 8.33984375 C6.26820313 9.40267578 6.27078125 10.46550781 6.2734375 11.56054688 C6.26570313 12.67494141 6.25796875 13.78933594 6.25 14.9375 C6.25773437 16.04802734 6.26546875 17.15855469 6.2734375 18.30273438 C6.27085937 19.36685547 6.26828125 20.43097656 6.265625 21.52734375 C6.26336914 22.50437256 6.26111328 23.48140137 6.25878906 24.48803711 C6 27 6 27 4 30 C-0.875 29.125 -0.875 29.125 -2 28 C-2.25342236 23.69352364 -2.18522638 19.37554946 -2.1875 15.0625 C-2.20586914 13.23428711 -2.20586914 13.23428711 -2.22460938 11.36914062 C-2.22654297 10.20705078 -2.22847656 9.04496094 -2.23046875 7.84765625 C-2.23457764 6.77523682 -2.23868652 5.70281738 -2.24291992 4.59790039 C-2 2 -2 2 0 0 Z " fill="#F0F0F0" transform="translate(358,245)"/>
<path d="M0 0 C2.27605184 2.12431505 2.90218604 3.44106306 3.4375 6.5 C2.84278924 9.89834723 1.79734842 11.01241034 -1 13 C-4 13.5625 -4 13.5625 -7 13 C-9.4375 10.875 -9.4375 10.875 -11 8 C-11 4.45665039 -10.64741834 2.74333217 -8.3125 0.0625 C-5.10056066 -1.41325591 -3.33525198 -1.06444212 0 0 Z " fill="#101010" transform="translate(323,301)"/>
<path d="M0 0 C3.4375 1 3.4375 1 5.4375 2.6875 C6.82656225 5.89970645 6.49271374 7.6936636 5.4375 11 C3.75 12.9375 3.75 12.9375 1.4375 14 C-2.06239972 13.92857348 -3.85513143 13.66021066 -6.4375 11.25 C-7.81113504 8.50272993 -8.09312116 7.03212094 -7.5625 4 C-5.24958684 0.48437199 -4.25397332 0 0 0 Z " fill="#101010" transform="translate(306.5625,253)"/>
<path d="M0 0 C2.2651631 2.11415222 2.89431221 3.47156104 3.5 6.5 C3 9 3 9 0.875 11.375 C-2 13 -2 13 -5.125 13 C-8 12 -8 12 -9.9375 10.3125 C-11.41325591 7.10056066 -11.06444212 5.33525198 -10 2 C-6.89527044 -1.5646895 -4.35928569 -1.39126139 0 0 Z " fill="#0F0F0F" transform="translate(407,301)"/>
<path d="M0 0 C4.35653019 1.39038198 4.35653019 1.39038198 5.9375 3.9375 C6.47602618 7.55331862 6.35986225 9.27861489 4.375 12.375 C1.9375 13.9375 1.9375 13.9375 -1.6875 13.8125 C-5.0625 12.9375 -5.0625 12.9375 -7.0625 10.9375 C-7.49772403 7.0204837 -7.61342928 4.78508351 -5.4375 1.4375 C-3.0625 -0.0625 -3.0625 -0.0625 0 0 Z " fill="#0B0B0B" transform="translate(436.0625,300.0625)"/>
<path d="M0 0 C2.375 1.5625 2.375 1.5625 4 4 C4 7.81153499 3.80074051 10.05097421 1.3125 13 C-1.86108915 14.37236288 -3.72882454 13.99557514 -7 13 C-9.46943529 9.29584707 -9.46913089 7.37855495 -9 3 C-6.35893733 -0.03233122 -3.92985113 -0.68772395 0 0 Z " fill="#0B0B0B" transform="translate(418,253)"/>
<path d="M0 0 C1.9375 1.125 1.9375 1.125 3 3 C3.53852618 6.61581862 3.42236225 8.34111489 1.4375 11.4375 C-1 13 -1 13 -4.625 12.9375 C-8 12 -8 12 -10 9 C-10.32162076 5.9124407 -10.48724515 3.85984439 -8.9375 1.125 C-5.8930714 -0.64273274 -3.4368988 -0.36823916 0 0 Z " fill="#060606" transform="translate(374,301)"/>
<path d="M0 0 C1.9375 1.0625 1.9375 1.0625 3 3 C3.4375 6.5 3.4375 6.5 3 10 C0.92308202 12.38460953 -0.40556916 12.8959746 -3.5 13.4375 C-6.89834723 12.84278924 -8.01241034 11.79734842 -10 9 C-10.45319325 5.82764724 -10.52990283 3.93512264 -8.9375 1.125 C-5.8930714 -0.64273274 -3.4368988 -0.36823916 0 0 Z " fill="#090909" transform="translate(289,301)"/>
<path d="M0 0 C1.67542976 0.28604898 3.34385343 0.61781233 5 1 C5 2.98 5 4.96 5 7 C2.625 7.625 2.625 7.625 0 8 C-0.66 7.34 -1.32 6.68 -2 6 C-1.44444444 1.44444444 -1.44444444 1.44444444 0 0 Z " fill="#F2F2F2" transform="translate(358,236)"/>
<path d="M0 0 C5.94 0 11.88 0 18 0 C18 0.33 18 0.66 18 1 C16.02 1 14.04 1 12 1 C12 1.66 12 2.32 12 3 C6.140625 4.171875 6.140625 4.171875 4 4 C2.68 2.68 1.36 1.36 0 0 Z " fill="#2D2D2D" transform="translate(332,263)"/>
<path d="M0 0 C2.31 0.33 4.62 0.66 7 1 C7 1.66 7 2.32 7 3 C4.03 3 1.06 3 -2 3 C-1.34 2.01 -0.68 1.02 0 0 Z " fill="#131313" transform="translate(335,253)"/>
</svg>
