<?xml version="1.0" encoding="UTF-8"?>
<svg version="1.1" xmlns="http://www.w3.org/2000/svg" width="300" height="100">
<path d="M0 0 C4.23585209 3.07099276 5.55810218 6.13133242 6.375 11.1875 C6.74006534 15.75842224 5.8536775 18.81124825 3.5 22.8125 C-0.13656289 26.26723474 -2.75811214 27.71390257 -7.8125 28 C-11.5 27.8125 -11.5 27.8125 -17.5 25.8125 C-17.5 30.7625 -17.5 35.7125 -17.5 40.8125 C-19.48 40.8125 -21.46 40.8125 -23.5 40.8125 C-23.6491107 36.09869019 -23.75756634 31.38627317 -23.82958984 26.6706543 C-23.85963274 25.06917387 -23.90048117 23.46785621 -23.95263672 21.86694336 C-24.42963994 6.84134194 -24.42963994 6.84134194 -20.6640625 2.28515625 C-15.20114492 -2.77809775 -6.65800415 -2.25896569 0 0 Z M-14.4375 6.8125 C-16.99454049 10.53183162 -17.22468526 12.38386786 -16.5 16.8125 C-15.08333333 19.39583333 -15.08333333 19.39583333 -12.5 20.8125 C-8.5508385 21.37666593 -6.4535616 21.46493688 -3.125 19.1875 C-1.10005464 16.22796447 -0.5 14.4073199 -0.5 10.8125 C-2.51136063 7.04119882 -3.86359468 6.02077811 -7.9375 4.6875 C-11.60082662 4.49890641 -11.60082662 4.49890641 -14.4375 6.8125 Z " fill="#FFFFFF" transform="translate(223.5,38.1875)"/>
<path d="M0 0 C4.22146824 3.23346503 5.46624993 6.02047063 7 11 C6.42967041 11.19634033 5.85934082 11.39268066 5.27172852 11.5949707 C2.69760281 12.48873152 0.13015683 13.40033027 -2.4375 14.3125 C-3.33533203 14.62123047 -4.23316406 14.92996094 -5.15820312 15.24804688 C-6.01220703 15.55419922 -6.86621094 15.86035156 -7.74609375 16.17578125 C-8.53685303 16.45333252 -9.3276123 16.73088379 -10.14233398 17.0168457 C-12.3550559 17.91421464 -12.3550559 17.91421464 -13 21 C-7.24073458 21.71527108 -7.24073458 21.71527108 -1.984375 19.69921875 C-0.82236798 18.64078192 0.30752058 17.54547851 1.39453125 16.41015625 C3.23484648 14.79372365 4.6123819 14.40915798 7 14 C6.93070495 17.46475274 6.80173399 20.0684222 4.48046875 22.765625 C-0.41741086 27.0138911 -4.23624107 28.38529034 -10.71875 28.26953125 C-14.4173489 27.83253926 -16.29597631 26.51537087 -19 24 C-22.31537432 19.23866803 -23.86740814 14.85500491 -23 9 C-21.1875 5.75 -21.1875 5.75 -19 3 C-18.566875 2.4225 -18.13375 1.845 -17.6875 1.25 C-12.14497364 -2.85557508 -6.0940276 -2.41245746 0 0 Z M-16 8 C-16 9.32 -16 10.64 -16 12 C-10.80408388 11.55966813 -7.33664919 11.11696661 -3 8 C-3.66 6.68 -4.32 5.36 -5 4 C-10.06478383 3.52885732 -12.47560205 4.26828453 -16 8 Z " fill="#FFFFFF" transform="translate(103,38)"/>
<path d="M0 0 C2.72816811 3.07711984 3.69698148 5.73493064 4.34375 9.703125 C1.38755781 10.8752699 -1.57153789 12.03989976 -4.53125 13.203125 C-5.37300781 13.53699219 -6.21476562 13.87085937 -7.08203125 14.21484375 C-7.88769531 14.53066406 -8.69335938 14.84648438 -9.5234375 15.171875 C-10.63887939 15.61176758 -10.63887939 15.61176758 -11.77685547 16.06054688 C-13.65625 16.703125 -13.65625 16.703125 -15.65625 16.703125 C-14.99625 17.693125 -14.33625 18.683125 -13.65625 19.703125 C-10.36990927 20.45598638 -10.36990927 20.45598638 -6.65625 19.703125 C-4.7004326 18.3078922 -3.03328246 16.76757488 -1.30078125 15.10546875 C0.79939267 13.3145841 2.6118265 12.86869612 5.34375 12.703125 C4.89030595 17.57764854 3.87287227 20.26687437 0.34375 23.703125 C-4.90237604 26.62884914 -8.80077769 27.26978361 -14.65625 26.703125 C-19.3593593 24.67223689 -22.37414119 21.26734261 -24.65625 16.703125 C-25.20269038 11.72245527 -25.19829675 7.8072943 -22.96875 3.265625 C-17.03720506 -3.30716804 -7.52460732 -5.8919095 0 0 Z M-17.65625 5.703125 C-18.54283466 8.29435243 -18.54283466 8.29435243 -18.65625 10.703125 C-13.24234132 10.23640873 -9.45107068 9.46014689 -4.65625 6.703125 C-5.31625 5.383125 -5.97625 4.063125 -6.65625 2.703125 C-11.26013896 2.38192344 -14.04545743 2.71132544 -17.65625 5.703125 Z " fill="#FFFFFF" transform="translate(44.65625,39.296875)"/>
<path d="M0 0 C4.7826087 4.03532609 4.7826087 4.03532609 6 7.6875 C6.0806622 9.16873547 6.10761193 10.65332204 6.09765625 12.13671875 C6.09443359 12.98427734 6.09121094 13.83183594 6.08789062 14.70507812 C6.07951172 15.58615234 6.07113281 16.46722656 6.0625 17.375 C6.05798828 18.26767578 6.05347656 19.16035156 6.04882812 20.08007812 C6.03704983 22.28261987 6.02060164 24.48502599 6 26.6875 C4.35 26.6875 2.7 26.6875 1 26.6875 C1 26.0275 1 25.3675 1 24.6875 C0.030625 25.203125 -0.93875 25.71875 -1.9375 26.25 C-6.45255886 28.16935701 -10.30668721 27.9270817 -15 26.6875 C-18.99740926 24.76282147 -20.63310295 23.29110483 -22.9375 19.5 C-24.23382397 14.84848458 -24.48845773 11.30741251 -23 6.6875 C-17.82823658 -1.58732147 -9.099643 -3.98109381 0 0 Z M-14.9375 6.75 C-17.52001338 10.42812512 -17.72125695 12.27981863 -17 16.6875 C-14.94502229 19.69092896 -13.52366286 20.52037356 -10.0625 21.625 C-6.34957588 21.70077396 -4.87199397 21.0010507 -2 18.6875 C-0.07136161 16.14520394 0.00902291 14.90404982 -0.125 11.6875 C-1.15691811 8.14949505 -1.95667579 6.76977446 -5 4.6875 C-9.40768137 3.96624305 -11.25937488 4.16748662 -14.9375 6.75 Z " fill="#FFFFFF" transform="translate(274,38.3125)"/>
<path d="M0 0 C4.23994912 1.78524174 6.10848677 3.63876673 7.9375 7.75 C9.72145993 13.46291931 9.05287573 17.93324395 6.3125 23.3125 C3.30864716 26.80346411 0.67339144 28.61503163 -3.953125 29.28125 C-9.81818179 29.54987856 -13.84143231 27.86686935 -18.3125 24 C-21.50301179 20.2186527 -21.33640486 16.23734167 -21.28125 11.5078125 C-20.86460293 7.79270942 -19.47744601 5.74527801 -17 3 C-11.55795436 -0.90854824 -6.48476397 -0.76446404 0 0 Z M-12.9375 8.6875 C-15.07825057 11.74134575 -15.07825057 11.74134575 -15.625 14.5625 C-14.69819711 18.17703129 -12.87628582 19.69897135 -10 22 C-7.56189845 23.15474612 -7.56189845 23.15474612 -5 23 C-2.16286436 21.61442213 -0.22998296 20.22998296 2 18 C2.57337295 13.65874764 2.48193094 11.68638649 -0.0625 8.0625 C-2.89953719 5.77369567 -2.89953719 5.77369567 -6.5 5.3125 C-10.21251339 5.72661706 -10.21251339 5.72661706 -12.9375 8.6875 Z " fill="#FFFFFF" transform="translate(185,37)"/>
<path d="M0 0 C3.17282395 1.66019858 5.37590133 3.75180266 7 7 C7.08400529 8.59447464 7.10727467 10.19240545 7.09765625 11.7890625 C7.09443359 12.73007812 7.09121094 13.67109375 7.08789062 14.640625 C7.07951172 15.62546875 7.07113281 16.6103125 7.0625 17.625 C7.05798828 18.61757813 7.05347656 19.61015625 7.04882812 20.6328125 C7.03702145 23.0886016 7.020554 25.54427104 7 28 C5.02 28 3.04 28 1 28 C0.95101562 26.81921875 0.90203125 25.6384375 0.8515625 24.421875 C0.77651121 22.86456063 0.70096439 21.30727009 0.625 19.75 C0.5940625 18.97269531 0.563125 18.19539063 0.53125 17.39453125 C0.34136766 11.88263076 0.34136766 11.88263076 -2 7 C-4.40882687 6.00156224 -4.40882687 6.00156224 -7 6 C-10.16903363 7.60672068 -10.16903363 7.60672068 -10.43237305 10.06298828 C-10.45855713 10.89040527 -10.48474121 11.71782227 -10.51171875 12.5703125 C-10.54716797 13.46621094 -10.58261719 14.36210938 -10.61914062 15.28515625 C-10.64169922 16.22230469 -10.66425781 17.15945312 -10.6875 18.125 C-10.72166016 19.06988281 -10.75582031 20.01476562 -10.79101562 20.98828125 C-10.87364112 23.32540253 -10.94273988 25.66214191 -11 28 C-13.31 28 -15.62 28 -18 28 C-18.08132642 24.95778935 -18.14065374 21.9177762 -18.1875 18.875 C-18.21263672 18.0190625 -18.23777344 17.163125 -18.26367188 16.28125 C-18.32352063 11.09435753 -18.00045435 7.43662689 -15 3 C-10.75125791 -1.2308149 -5.64679233 -0.8976115 0 0 Z " fill="#FFFFFF" transform="translate(133,37)"/>
<path d="M0 0 C2.31 0 4.62 0 7 0 C8.65 4.62 10.3 9.24 12 14 C12.66 14 13.32 14 14 14 C15.65 9.38 17.3 4.76 19 0 C21.31 0 23.62 0 26 0 C24.67554915 6.62894341 22.78331885 12.75290042 20.375 19.0625 C20.05015625 19.92810547 19.7253125 20.79371094 19.390625 21.68554688 C18.59908318 23.79244496 17.80216278 25.89712802 17 28 C14.69 28 12.38 28 10 28 C7.32194328 21.67522774 4.70122252 15.32953727 2.1875 8.9375 C1.76855469 7.87402344 1.34960938 6.81054688 0.91796875 5.71484375 C0 3 0 3 0 0 Z " fill="#FFFFFF" transform="translate(52,37)"/>
<path d="M0 0 C2.31 0 4.62 0 7 0 C7.33 3.3 7.66 6.6 8 10 C8.99 10.33 9.98 10.66 11 11 C11 12.65 11 14.3 11 16 C9.68 16.33 8.36 16.66 7 17 C7 24.26 7 31.52 7 39 C4.69 39 2.38 39 0 39 C0 31.74 0 24.48 0 17 C-1.32 16.67 -2.64 16.34 -4 16 C-4 14.35 -4 12.7 -4 11 C-3.01 10.67 -2.02 10.34 -1 10 C-0.67 6.7 -0.34 3.4 0 0 Z " fill="#FFFFFF" transform="translate(149,26)"/>
<path d="M0 0 C1.98 0 3.96 0 6 0 C6 9.24 6 18.48 6 28 C4.02 28 2.04 28 0 28 C0 18.76 0 9.52 0 0 Z " fill="#FFFFFF" transform="translate(237,37)"/>
<path d="M0 0 C4.55555556 0.55555556 4.55555556 0.55555556 6 2 C6.125 4.5 6.125 4.5 6 7 C5 8 5 8 1.9375 8.0625 C0.968125 8.041875 -0.00125 8.02125 -1 8 C-1.625 5.125 -1.625 5.125 -2 2 C-1.34 1.34 -0.68 0.68 0 0 Z " fill="#FFFFFF" transform="translate(238,25)"/>
</svg>
