<?xml version="1.0" encoding="UTF-8"?>
<svg version="1.1" xmlns="http://www.w3.org/2000/svg" width="574" height="103">
<path d="M0 0 C6.07908256 2.6646453 9.3023433 7.06379 11.734375 13.10546875 C14.08003452 21.66144268 13.77851021 31.4550884 9.62109375 39.33984375 C7.12868148 43.3203996 4.21333204 46.22406036 -0.29296875 47.8671875 C-8.54702997 49.73748976 -12.91818842 48.60311108 -20.37890625 44.33984375 C-20.70890625 50.60984375 -21.03890625 56.87984375 -21.37890625 63.33984375 C-25.66890625 63.33984375 -29.95890625 63.33984375 -34.37890625 63.33984375 C-34.37890625 42.54984375 -34.37890625 21.75984375 -34.37890625 0.33984375 C-30.08890625 0.33984375 -25.79890625 0.33984375 -21.37890625 0.33984375 C-21.04890625 1.32984375 -20.71890625 2.31984375 -20.37890625 3.33984375 C-19.63640625 2.67984375 -18.89390625 2.01984375 -18.12890625 1.33984375 C-12.8336196 -2.17361659 -5.9198662 -1.64278717 0 0 Z M-18.37890625 12.33984375 C-22.22057472 17.46206837 -22.04589469 23.19989534 -21.37890625 29.33984375 C-20.12050677 33.04881063 -19.07227564 34.74277566 -16.12890625 37.27734375 C-12.3432705 38.73997574 -10.25560219 38.51669787 -6.37890625 37.33984375 C-2.73621738 34.17228821 -1.16258258 31.78776062 -0.37890625 27.02734375 C-0.08528778 22.06938608 -1.14801689 17.76490001 -3.37890625 13.33984375 C-8.03887821 8.36920699 -12.938508 8.67348841 -18.37890625 12.33984375 Z " fill="#FFFFFF" transform="translate(246.37890625,16.66015625)"/>
<path d="M0 0 C7.12169646 5.44695962 9.34577334 11.51885256 10.7109375 20.30859375 C10.7109375 21.95859375 10.7109375 23.60859375 10.7109375 25.30859375 C-0.1790625 25.30859375 -11.0690625 25.30859375 -22.2890625 25.30859375 C-21.10906647 32.12106436 -21.10906647 32.12106436 -17.6015625 34.30859375 C-13.6210586 35.51025531 -11.28796906 35.41940113 -7.2890625 34.30859375 C-6.40347656 33.29732422 -6.40347656 33.29732422 -5.5 32.265625 C-2.46392438 29.5782153 -0.5237319 29.89920697 3.4609375 30.05859375 C4.63140625 30.0946875 5.801875 30.13078125 7.0078125 30.16796875 C7.89984375 30.214375 8.791875 30.26078125 9.7109375 30.30859375 C7.82721418 36.73541449 5.52519966 40.76358731 -0.2890625 44.30859375 C-7.88950524 47.36552113 -16.6149878 47.76864891 -24.2890625 44.68359375 C-29.80405313 41.80488985 -33.50225311 37.4119647 -35.78515625 31.5546875 C-37.38115533 24.44073811 -37.47101799 15.78149873 -34.39453125 9.05078125 C-31.30440023 4.18082212 -26.95084915 -0.26121807 -21.43359375 -2.25390625 C-14.23512284 -3.72244676 -6.41951031 -3.91400523 0 0 Z M-20.2890625 10.30859375 C-22.5664126 13.12369368 -22.5664126 13.12369368 -22.2890625 16.30859375 C-16.0190625 16.30859375 -9.7490625 16.30859375 -3.2890625 16.30859375 C-6.12750399 10.21403737 -6.12750399 10.21403737 -11.2890625 7.30859375 C-15.04492667 7.30859375 -17.05557022 8.45105563 -20.2890625 10.30859375 Z " fill="#FFFFFF" transform="translate(297.2890625,18.69140625)"/>
<path d="M0 0 C6.39171239 3.80047764 9.87949404 8.96691587 12.1796875 15.93359375 C12.79331447 19.38389981 12.625 22.93305283 12.625 26.4375 C1.735 26.4375 -9.155 26.4375 -20.375 26.4375 C-18.38432442 34.05274114 -18.38432442 34.05274114 -15.125 36 C-11.53795478 36.57066629 -8.90426377 36.31981594 -5.375 35.4375 C-4.2921875 34.4165625 -4.2921875 34.4165625 -3.1875 33.375 C1.34213928 30.25458183 6.28624746 31.13096875 11.625 31.4375 C9.97270677 38.21190226 6.41115891 42.6381057 0.625 46.375 C-6.8298525 49.00320742 -15.79152128 48.6163646 -22.9375 45.375 C-28.62376868 42.0603442 -31.30042221 38.14952965 -33.6875 32.125 C-35.32273002 23.35422082 -34.92848076 15.20051688 -30.15625 7.4609375 C-23.12739611 -1.71562174 -10.63980546 -4.69941694 0 0 Z M-18.375 11.4375 C-20.6523501 14.25259993 -20.6523501 14.25259993 -20.375 17.4375 C-14.105 17.4375 -7.835 17.4375 -1.375 17.4375 C-2.67015236 11.45362802 -2.67015236 11.45362802 -6.3125 9.5625 C-11.38723097 7.69831311 -13.81072892 8.81547193 -18.375 11.4375 Z " fill="#FFFFFF" transform="translate(150.375,17.5625)"/>
<path d="M0 0 C3.63535563 2.12409486 6.18959853 4.14102554 8.375 7.8125 C8.9525 8.76125 9.53 9.71 10.125 10.6875 C13.00937322 17.95420822 12.63366579 27.74643386 9.75 34.9375 C6.85042135 40.35004682 2.40040461 44.08088692 -3.38671875 46.30078125 C-11.66043779 48.19232958 -20.08845616 47.77910271 -27.49609375 43.5078125 C-32.1302156 39.81752097 -35.61271418 34.70117345 -36.625 28.8125 C-37.25070438 19.71572091 -36.67559432 13.05952223 -32.0625 5.125 C-23.25745066 -3.22850835 -11.06996698 -5.14312625 0 0 Z M-19.625 10.8125 C-22.51385828 14.67796995 -23.03353198 17.52860487 -23 22.3125 C-23.00773437 23.4159375 -23.01546875 24.519375 -23.0234375 25.65625 C-22.45308125 30.17436621 -20.84768835 32.79359304 -17.375 35.6875 C-13.58801745 37.23672013 -11.52948895 36.99779129 -7.625 35.8125 C-3.66261003 32.45308241 -2.36842195 30.00930803 -1.6875 24.875 C-1.40696007 19.38796909 -2.04917519 14.95111938 -5.375 10.4375 C-10.48793357 6.74482575 -14.53601928 7.41984619 -19.625 10.8125 Z " fill="#FFFFFF" transform="translate(398.625,18.1875)"/>
<path d="M0 0 C3.66144258 2.67910432 5.95853028 5.65814822 7.16186523 10.07495117 C7.67454969 13.65811878 7.68611233 17.19045554 7.66015625 20.80078125 C7.6587413 21.54837204 7.65732635 22.29596283 7.65586853 23.06620789 C7.65029764 25.44001365 7.6377506 27.81372303 7.625 30.1875 C7.61998123 31.80273301 7.61541899 33.4179675 7.61132812 35.03320312 C7.60033775 38.98050555 7.58309332 42.92773647 7.5625 46.875 C2.9425 46.875 -1.6775 46.875 -6.4375 46.875 C-6.49808594 44.61140625 -6.55867188 42.3478125 -6.62109375 40.015625 C-6.68294121 37.81800184 -6.7463048 35.62042724 -6.80981445 33.42285156 C-6.85306707 31.89815614 -6.89474885 30.37341531 -6.93481445 28.84863281 C-6.99275203 26.65415778 -7.05637795 24.45990932 -7.12109375 22.265625 C-7.13780624 21.5863092 -7.15451874 20.90699341 -7.17173767 20.20709229 C-7.27257472 16.96961448 -7.46889176 13.97730396 -8.4375 10.875 C-14.46478651 10.32799479 -14.46478651 10.32799479 -19.9375 12.4375 C-23.76449798 18.65637172 -22.75483208 27.74282179 -23 34.8125 C-23.04318359 35.97330078 -23.08636719 37.13410156 -23.13085938 38.33007812 C-23.23634782 41.17826601 -23.33736992 44.0266187 -23.4375 46.875 C-27.7275 46.875 -32.0175 46.875 -36.4375 46.875 C-36.4375 31.365 -36.4375 15.855 -36.4375 -0.125 C-32.1475 -0.125 -27.8575 -0.125 -23.4375 -0.125 C-23.1075 0.865 -22.7775 1.855 -22.4375 2.875 C-21.344375 2.215 -20.25125 1.555 -19.125 0.875 C-12.90001416 -2.23196451 -6.5397178 -2.14027128 0 0 Z " fill="#FFFFFF" transform="translate(451.4375,17.125)"/>
<path d="M0 0 C11.15881784 -1.20563458 11.15881784 -1.20563458 16 0 C19.3731161 2.86538923 21.21877491 5.97787882 23 10 C23.33128906 9.278125 23.66257813 8.55625 24.00390625 7.8125 C25.76626977 4.63229515 27.24705151 2.39935877 30 0 C35.13514465 -0.89627781 39.84423178 -0.59719323 45 0 C44.38902169 3.29323265 43.24742572 5.29651357 41.20703125 7.93359375 C40.65982422 8.66513672 40.11261719 9.39667969 39.54882812 10.15039062 C38.38885109 11.67832439 37.21949795 13.19918401 36.04101562 14.71289062 C35.49767578 15.44572266 34.95433594 16.17855469 34.39453125 16.93359375 C33.88768799 17.59415771 33.38084473 18.25472168 32.85864258 18.93530273 C31.74015343 21.03317759 31.74015343 21.03317759 32.66040039 23.46826172 C33.98606784 25.97366931 35.40525927 28.25855526 37.0390625 30.57421875 C37.90917969 31.82235352 37.90917969 31.82235352 38.796875 33.09570312 C39.40015625 33.95099609 40.0034375 34.80628906 40.625 35.6875 C41.82974798 37.39676796 43.03048982 39.10886899 44.2265625 40.82421875 C44.75846191 41.57791748 45.29036133 42.33161621 45.83837891 43.1081543 C47 45 47 45 47 47 C41.81191479 47.66877661 37.16823832 47.96480735 32 47 C28.32917897 43.85579465 26.04885287 40.35953997 24 36 C24 35.34 24 34.68 24 34 C23.34 34 22.68 34 22 34 C21.79375 34.66 21.5875 35.32 21.375 36 C20.92125 36.99 20.4675 37.98 20 39 C19.68933594 39.69738281 19.37867188 40.39476562 19.05859375 41.11328125 C17.573671 43.73400699 16.47331972 45.24432746 14 47 C8.91054951 47.69813405 4.10165414 47.4673271 -1 47 C0.30849577 43.4306223 1.87392474 40.47581434 4.0390625 37.35546875 C4.61914062 36.51435547 5.19921875 35.67324219 5.796875 34.80664062 C6.40015625 33.94232422 7.0034375 33.07800781 7.625 32.1875 C8.23601562 31.30384766 8.84703125 30.42019531 9.4765625 29.50976562 C10.98003475 27.33677839 12.48794734 25.16702124 14 23 C11.20469164 17.78372913 8.33798711 12.84963952 4.75 8.125 C1.10514541 3.31543624 1.10514541 3.31543624 0 0 Z " fill="#FFFFFF" transform="translate(163,17)"/>
<path d="M0 0 C1.8871875 0.0309375 1.8871875 0.0309375 3.8125 0.0625 C3.8125 4.3525 3.8125 8.6425 3.8125 13.0625 C1.4921875 13.1553125 1.4921875 13.1553125 -0.875 13.25 C-4.81546569 13.63511634 -6.00850435 13.92368705 -9.25 16.4375 C-12.12498825 20.33264538 -12.34267554 23.32121234 -12.50390625 28.04296875 C-12.54580078 29.20634766 -12.58769531 30.36972656 -12.63085938 31.56835938 C-12.67017578 32.78330078 -12.70949219 33.99824219 -12.75 35.25 C-12.79318359 36.47654297 -12.83636719 37.70308594 -12.88085938 38.96679688 C-12.98703014 41.99856192 -13.08777764 45.030516 -13.1875 48.0625 C-17.8075 48.0625 -22.4275 48.0625 -27.1875 48.0625 C-27.1875 32.5525 -27.1875 17.0425 -27.1875 1.0625 C-22.8975 1.0625 -18.6075 1.0625 -14.1875 1.0625 C-13.8575 2.7125 -13.5275 4.3625 -13.1875 6.0625 C-12.259375 5.258125 -11.33125 4.45375 -10.375 3.625 C-7.0603267 0.75228314 -4.36694896 -0.07158933 0 0 Z " fill="#FFFFFF" transform="translate(338.1875,15.9375)"/>
<path d="M0 0 C4.29 0 8.58 0 13 0 C13 15.51 13 31.02 13 47 C8.71 47 4.42 47 0 47 C0 31.49 0 15.98 0 0 Z " fill="#FFFFFF" transform="translate(345,17)"/>
<path d="M0 0 C0.89203125 0.11085938 1.7840625 0.22171875 2.703125 0.3359375 C3.37859375 0.43132812 4.0540625 0.52671875 4.75 0.625 C4.836985 4.39568832 4.89038579 8.16611932 4.9375 11.9375 C4.96263672 13.00935547 4.98777344 14.08121094 5.01367188 15.18554688 C5.02333984 16.21357422 5.03300781 17.24160156 5.04296875 18.30078125 C5.0586792 19.24864502 5.07438965 20.19650879 5.09057617 21.1730957 C4.75 23.625 4.75 23.625 3.44262695 25.40698242 C0.67872223 27.39589352 -1.90627001 27.45204845 -5.25 27.625 C-8.125 27 -8.125 27 -10.25 25.625 C-11.0625 23 -11.0625 23 -11.25 20.625 C-9.93 20.625 -8.61 20.625 -7.25 20.625 C-6.92 21.285 -6.59 21.945 -6.25 22.625 C-4.6 22.625 -2.95 22.625 -1.25 22.625 C-0.92 21.635 -0.59 20.645 -0.25 19.625 C-1.85875 19.7178125 -1.85875 19.7178125 -3.5 19.8125 C-7.25 19.625 -7.25 19.625 -9.625 18.6875 C-12.25551214 15.34877305 -12.43501543 11.79496305 -12.25 7.625 C-11.11740109 4.34642421 -10.37940173 2.37381559 -7.46484375 0.44140625 C-4.72637529 -0.56801158 -2.88011895 -0.37896302 0 0 Z M-7.25 5.625 C-7.61362818 7.83225073 -7.61362818 7.83225073 -7.4375 10.25 C-7.41042969 11.06726563 -7.38335937 11.88453125 -7.35546875 12.7265625 C-7.32066406 13.35304688 -7.28585937 13.97953125 -7.25 14.625 C-4.775 15.615 -4.775 15.615 -2.25 16.625 C0.23144231 14.46722408 1.45683556 12.94753032 1.75 9.625 C1.18088211 6.91024895 1.18088211 6.91024895 -0.25 4.625 C-3.57658403 3.01536256 -4.05217502 3.49311668 -7.25 5.625 Z " fill="#FFFFFF" transform="translate(409.25,74.375)"/>
<path d="M0 0 C1.875 1.0625 1.875 1.0625 3 3 C3.53523139 5.68145627 3.7757271 8.26387067 4 11 C-2.435 11.495 -2.435 11.495 -9 12 C-8.01 13.485 -8.01 13.485 -7 15 C-4.52733235 14.65555119 -4.52733235 14.65555119 -2 14 C-1.67 13.34 -1.34 12.68 -1 12 C0.32 12 1.64 12 3 12 C2.73136414 15.31317555 2.40940132 16.63876354 -0.125 18.875 C-3.93808336 20.3670761 -6.08326672 20.13941332 -10 19 C-12.65343867 16.82281955 -13.78132085 15.24444216 -14.37890625 11.84375 C-14.58930577 7.77150115 -14.32926509 5.5449905 -12.1875 2 C-8.19223991 -1.65280922 -5.06685267 -1.08575414 0 0 Z M-7 3 C-7.66 4.32 -8.32 5.64 -9 7 C-6.36 7 -3.72 7 -1 7 C-1.66 5.68 -2.32 4.36 -3 3 C-4.32 3 -5.64 3 -7 3 Z " fill="#FFFFFF" transform="translate(288,75)"/>
<path d="M0 0 C1.65 0 3.3 0 5 0 C5 2.31 5 4.62 5 7 C6.0725 6.773125 7.145 6.54625 8.25 6.3125 C12 6 12 6 14.21875 6.9375 C17.03770591 10.20155421 16.42732882 13.53050319 16.25 17.6875 C16.23195313 18.48478516 16.21390625 19.28207031 16.1953125 20.10351562 C16.14822247 22.06952449 16.07647899 24.03491494 16 26 C14.68 26 13.36 26 12 26 C11.67 21.05 11.34 16.1 11 11 C9.35 11.33 7.7 11.66 6 12 C5.67 16.62 5.34 21.24 5 26 C3.35 26 1.7 26 0 26 C0 17.42 0 8.84 0 0 Z " fill="#FFFFFF" transform="translate(313,68)"/>
<path d="M0 0 C2 1.625 2 1.625 3 4 C3.1875 7.75 3.1875 7.75 3 11 C-1.29 11 -5.58 11 -10 11 C-9.67 12.32 -9.34 13.64 -9 15 C-6.6568787 14.74438677 -4.32156597 14.40729228 -2 14 C-1.67 13.34 -1.34 12.68 -1 12 C0.32 12 1.64 12 3 12 C2.875 14.3125 2.875 14.3125 2 17 C-1.20858927 19.23855065 -3.20276511 20.0159447 -7.125 19.9375 C-10.65780505 18.78549835 -11.9933117 18.16439308 -14 15 C-14.82027848 10.04484836 -14.77407853 6.26432826 -12.125 1.9375 C-8.24567206 -1.59953429 -4.92235921 -1.27840413 0 0 Z M-7 3 C-8.77409808 4.92022703 -8.77409808 4.92022703 -10 7 C-7.03 7 -4.06 7 -1 7 C-1.66 5.68 -2.32 4.36 -3 3 C-4.32 3 -5.64 3 -7 3 Z " fill="#FFFFFF" transform="translate(437,75)"/>
<path d="M0 0 C3.22552339 0.54902526 4.71436928 1.10585922 6.9375 3.5 C6.9375 4.82 6.9375 6.14 6.9375 7.5 C5.6175 7.5 4.2975 7.5 2.9375 7.5 C2.6075 6.84 2.2775 6.18 1.9375 5.5 C-0.58983235 4.84444881 -0.58983235 4.84444881 -3.0625 4.5 C-2.7325 5.49 -2.4025 6.48 -2.0625 7.5 C0.03469872 8.52281518 0.03469872 8.52281518 2.5 9.1875 C3.32628906 9.43886719 4.15257812 9.69023438 5.00390625 9.94921875 C5.64199219 10.13097656 6.28007812 10.31273438 6.9375 10.5 C7.75 13.75 7.75 13.75 7.9375 17.5 C6.0625 20 6.0625 20 2.9375 21.5 C-0.18606325 21.66666172 -3.08243226 21.47774325 -6.0625 20.5 C-8.0625 17.5 -8.0625 17.5 -8.0625 13.5 C-6.7425 13.5 -5.4225 13.5 -4.0625 13.5 C-3.0725 14.985 -3.0725 14.985 -2.0625 16.5 C-0.4125 16.17 1.2375 15.84 2.9375 15.5 C0.78704134 13.34954134 -0.28594402 13.02736592 -3.125 12.1875 C-6.88437218 10.82232652 -6.88437218 10.82232652 -8.375 8.125 C-8.0625 5.5 -8.0625 5.5 -6 2.6875 C-3.0625 0.5 -3.0625 0.5 0 0 Z " fill="#FFFFFF" transform="translate(451.0625,73.5)"/>
<path d="M0 0 C2.61235115 0.87078372 3.66070417 1.43735476 5.0859375 3.80078125 C6.62612267 7.50644045 6.55464852 11.06129343 6 15 C4.4375 18 4.4375 18 2 20 C-1.94929279 21.14888518 -4.02958859 21.43129396 -7.8125 19.75 C-10 18 -10 18 -12 15 C-12.43145362 9.64997517 -12.45651329 6.35264636 -9 2 C-5.51195905 -0.32536063 -4.09859246 -0.33457898 0 0 Z M-5 4 C-7.45992068 6.88404494 -8.03644372 8.38045681 -7.8125 12.1875 C-7.21417687 15.10787469 -7.21417687 15.10787469 -5 17 C-2.46048456 16.90888062 -2.46048456 16.90888062 0 16 C2.37222995 13.10420618 2.37222995 13.10420618 1.75 9.4375 C1.3141556 5.95407388 1.3141556 5.95407388 -1 4 C-2.32 4 -3.64 4 -5 4 Z " fill="#FFFFFF" transform="translate(389,74)"/>
<path d="M0 0 C4.63235294 2.26470588 4.63235294 2.26470588 6 5 C6.51507805 9.77080489 6.64267091 13.74036502 4.4375 18.0625 C1.2108979 20.627235 -0.89763122 21 -5 21 C-7.90664974 19.77274789 -9.47179407 18.85019448 -11.140625 16.1640625 C-12.6418419 12.3837254 -12.0574939 8.85916603 -11 5 C-7.80049046 0.52068665 -5.4870157 -0.91450262 0 0 Z M-5 4 C-7.64508959 6.64508959 -7.78233633 8.29971764 -8 12 C-6.68326167 14.83658587 -6.68326167 14.83658587 -5 17 C-2.56282742 16.72965366 -2.56282742 16.72965366 0 16 C2.31282587 12.53076119 2.42478586 11.07794425 2 7 C0.87359395 5.03959519 0.87359395 5.03959519 -1 4 C-2.32 4 -3.64 4 -5 4 Z " fill="#FFFFFF" transform="translate(362,74)"/>
<path d="M0 0 C2 2 2 2 2.1953125 5.9140625 C2.18200376 7.48449351 2.15813602 9.05486221 2.125 10.625 C2.11597656 11.42679688 2.10695313 12.22859375 2.09765625 13.0546875 C2.07406223 15.03658523 2.03819065 17.01832981 2 19 C0.68 19 -0.64 19 -2 19 C-2.33 14.05 -2.66 9.1 -3 4 C-4.65 4.33 -6.3 4.66 -8 5 C-8.33 9.62 -8.66 14.24 -9 19 C-10.65 19 -12.3 19 -14 19 C-14 12.73 -14 6.46 -14 0 C-4.52307692 -1.18461538 -4.52307692 -1.18461538 0 0 Z " fill="#FFFFFF" transform="translate(346,75)"/>
<path d="M0 0 C2.3125 1.1875 2.3125 1.1875 4 3 C4.75 5.6875 4.75 5.6875 5 8 C3.35 8 1.7 8 0 8 C-0.33 7.01 -0.66 6.02 -1 5 C-2.65 5.33 -4.3 5.66 -6 6 C-7.19988045 11.28199593 -7.19988045 11.28199593 -5 16 C-3.02463255 15.65213292 -3.02463255 15.65213292 -1 15 C-0.67 14.34 -0.34 13.68 0 13 C1.65 13 3.3 13 5 13 C3.92598892 15.91517292 3.22189824 17.77810176 1 20 C-1.93411795 20.95160582 -3.62468004 21.09829808 -6.625 20.3125 C-9.46393182 18.74361663 -10.57088027 17.9334563 -12 15 C-12.71782321 10.32539522 -12.66282297 7.06051676 -10.125 3 C-6.7451322 -0.18105204 -4.59564811 -0.36765185 0 0 Z " fill="#FFFFFF" transform="translate(306,74)"/>
<path d="M0 0 C4.29 0 8.58 0 13 0 C13 2.97 13 5.94 13 9 C11.39850114 9.67305018 9.79368971 10.33822227 8.1875 11 C7.29417969 11.37125 6.40085937 11.7425 5.48046875 12.125 C3 13 3 13 0 13 C0 8.71 0 4.42 0 0 Z " fill="#FFFFFF" transform="translate(345,1)"/>
<path d="M0 0 C1.32 0 2.64 0 4 0 C4 1.65 4 3.3 4 5 C4.99 5 5.98 5 7 5 C7 5.99 7 6.98 7 8 C6.01 8 5.02 8 4 8 C4.11347619 9.97986082 4.2410935 11.95891598 4.375 13.9375 C4.44460938 15.03964844 4.51421875 16.14179687 4.5859375 17.27734375 C4.72257812 18.17582031 4.85921875 19.07429688 5 20 C5.66 20.33 6.32 20.66 7 21 C7 21.99 7 22.98 7 24 C5.02 24 3.04 24 1 24 C-0.50156874 20.99686252 -0.09281204 18.20932478 -0.0625 14.875 C-0.05347656 13.59367187 -0.04445313 12.31234375 -0.03515625 10.9921875 C-0.02355469 10.00476563 -0.01195312 9.01734375 0 8 C-0.66 8 -1.32 8 -2 8 C-2 7.01 -2 6.02 -2 5 C-1.34 5 -0.68 5 0 5 C0 3.35 0 1.7 0 0 Z " fill="#FFFFFF" transform="translate(265,70)"/>
<path d="M0 0 C1.32 0 2.64 0 4 0 C4 8.58 4 17.16 4 26 C2.68 26 1.36 26 0 26 C0 17.42 0 8.84 0 0 Z " fill="#FFFFFF" transform="translate(371,68)"/>
<path d="M0 0 C1.32 0 2.64 0 4 0 C4 6.27 4 12.54 4 19 C2.68 19 1.36 19 0 19 C0 12.73 0 6.46 0 0 Z " fill="#FFFFFF" transform="translate(417,75)"/>
<path d="M0 0 C1.32 0 2.64 0 4 0 C4 1.32 4 2.64 4 4 C2.68 4 1.36 4 0 4 C0 2.68 0 1.36 0 0 Z " fill="#FFFFFF" transform="translate(417,68)"/>
</svg>
