<?xml version="1.0" encoding="UTF-8"?>
<svg version="1.1" xmlns="http://www.w3.org/2000/svg" width="242" height="96">
<path d="M0 0 C0.33 0.66 0.66 1.32 1 2 C1.66 1.67 2.32 1.34 3 1 C5.33294775 0.95758277 7.66702567 0.95907063 10 1 C11.65759351 1 13.31532592 0.99438033 14.97265625 0.96484375 C20.77777778 0.88888889 20.77777778 0.88888889 23 2 C23.94137255 4.82411765 24.11725382 6.52918032 24.09765625 9.44921875 C24.09443359 10.29677734 24.09121094 11.14433594 24.08789062 12.01757812 C24.07532227 13.33918945 24.07532227 13.33918945 24.0625 14.6875 C24.05798828 15.58017578 24.05347656 16.47285156 24.04882812 17.39257812 C24.03704983 19.59511987 24.02060164 21.79752599 24 24 C21.36 24 18.72 24 16 24 C16 18.39 16 12.78 16 7 C15.01 7 14.02 7 13 7 C13 12.61 13 18.22 13 24 C10.36 24 7.72 24 5 24 C3.46733418 20.93466836 3.89723529 17.73245728 3.9375 14.375 C3.94201172 13.66859375 3.94652344 12.9621875 3.95117188 12.234375 C3.96296125 10.48954725 3.98089676 8.744763 4 7 C3.01 7 2.02 7 1 7 C1 12.61 1 18.22 1 24 C-1.64 24 -4.28 24 -7 24 C-7.33 16.74 -7.66 9.48 -8 2 C-5.36 1.34 -2.72 0.68 0 0 Z " fill="#002854" transform="translate(57,32)"/>
<path d="M0 0 C2.64 0 5.28 0 8 0 C8 3.63 8 7.26 8 11 C10.31 11 12.62 11 15 11 C15 7.37 15 3.74 15 0 C17.97 0 20.94 0 24 0 C24 9.9 24 19.8 24 30 C21.03 30 18.06 30 15 30 C15 25.71 15 21.42 15 17 C12.69 17 10.38 17 8 17 C8.08378906 17.85464844 8.16757813 18.70929687 8.25390625 19.58984375 C8.35574219 20.69457031 8.45757812 21.79929687 8.5625 22.9375 C8.66691406 24.03964844 8.77132813 25.14179687 8.87890625 26.27734375 C8.91886719 27.17582031 8.95882813 28.07429688 9 29 C8.67 29.33 8.34 29.66 8 30 C5.36 30 2.72 30 0 30 C0 20.1 0 10.2 0 0 Z " fill="#002854" transform="translate(0,26)"/>
<path d="M0 0 C1.35479692 -0.00536553 2.70981746 -0.04914864 4.0625 -0.125 C5.361875 -0.08375 6.66125 -0.0425 8 0 C10.13604308 3.20406462 10.24208908 3.99600747 10.1953125 7.66796875 C10.18886719 8.56064453 10.18242187 9.45332031 10.17578125 10.37304688 C10.15902344 11.30181641 10.14226562 12.23058594 10.125 13.1875 C10.11597656 14.12787109 10.10695312 15.06824219 10.09765625 16.03710938 C10.07409056 18.35832968 10.04119116 20.67903644 10 23 C7.36 23 4.72 23 2 23 C2 17.39 2 11.78 2 6 C1.01 6 0.02 6 -1 6 C-1 11.61 -1 17.22 -1 23 C-3.97 23 -6.94 23 -10 23 C-10 15.74 -10 8.48 -10 1 C-3 -1 -3 -1 0 0 Z " fill="#002854" transform="translate(232,33)"/>
<path d="M0 0 C2.64 0 5.28 0 8 0 C8.33 5.28 8.66 10.56 9 16 C9.66 16 10.32 16 11 16 C11.33 10.72 11.66 5.44 12 0 C14.64 0 17.28 0 20 0 C20 7.59 20 15.18 20 23 C17.256875 23.0825 14.51375 23.165 11.6875 23.25 C10.82729248 23.28641602 9.96708496 23.32283203 9.08081055 23.36035156 C3.63558745 23.44002208 3.63558745 23.44002208 0.96875 21.59375 C-0.55528892 17.5132587 -0.31172254 13.56275192 -0.1875 9.25 C-0.17396484 8.36183594 -0.16042969 7.47367188 -0.14648438 6.55859375 C-0.11121309 4.37177422 -0.06192752 2.18620034 0 0 Z " fill="#002854" transform="translate(27,33)"/>
<path d="M0 0 C0.33 0.66 0.66 1.32 1 2 C1.66 1.67 2.32 1.34 3 1 C6.4375 0.625 6.4375 0.625 10 1 C13.81022489 5.32347436 13.35468393 9.88116569 13.1875 15.3125 C13.16719727 16.56643555 13.16719727 16.56643555 13.14648438 17.84570312 C13.11131217 19.89741498 13.05751048 21.94879275 13 24 C10.36 24 7.72 24 5 24 C4.67 18.72 4.34 13.44 4 8 C3.34 8 2.68 8 2 8 C1.67 13.28 1.34 18.56 1 24 C-1.64 24 -4.28 24 -7 24 C-7 16.74 -7 9.48 -7 2 C-4.69 1.34 -2.38 0.68 0 0 Z " fill="#002854" transform="translate(112,32)"/>
<path d="M0 0 C1.06089844 -0.03738281 2.12179688 -0.07476562 3.21484375 -0.11328125 C6.0625 0.3125 6.0625 0.3125 7.9296875 1.72265625 C9.70102797 5.77230705 9.37568184 9.69908449 9.25 14.0625 C9.22969727 15.39474609 9.22969727 15.39474609 9.20898438 16.75390625 C9.17371309 18.94072578 9.12442752 21.12629966 9.0625 23.3125 C6.45771117 23.3934313 3.85543347 23.45295434 1.25 23.5 C0.14301758 23.53770508 0.14301758 23.53770508 -0.98632812 23.57617188 C-6.4097 23.64979231 -6.4097 23.64979231 -8.91796875 22.046875 C-10.728698 18.96655398 -10.67083174 15.70501598 -9.9375 12.3125 C-7.04175444 9.16854768 -3.9486667 7.68775715 0.0625 6.3125 C-2.5775 6.3125 -5.2175 6.3125 -7.9375 6.3125 C-7.9375 4.6625 -7.9375 3.0125 -7.9375 1.3125 C-5.23707819 -0.0377109 -3.01298373 0.06938993 0 0 Z M-0.9375 12.3125 C-1.5975 13.6325 -2.2575 14.9525 -2.9375 16.3125 C-1.6175 16.6425 -0.2975 16.9725 1.0625 17.3125 C1.0625 15.6625 1.0625 14.0125 1.0625 12.3125 C0.4025 12.3125 -0.2575 12.3125 -0.9375 12.3125 Z " fill="#002854" transform="translate(161.9375,32.6875)"/>
<path d="M0 0 C1.06089844 -0.03738281 2.12179688 -0.07476562 3.21484375 -0.11328125 C6.0625 0.3125 6.0625 0.3125 7.9296875 1.72265625 C9.70102797 5.77230705 9.37568184 9.69908449 9.25 14.0625 C9.22969727 15.39474609 9.22969727 15.39474609 9.20898438 16.75390625 C9.17371309 18.94072578 9.12442752 21.12629966 9.0625 23.3125 C6.45771117 23.3934313 3.85543347 23.45295434 1.25 23.5 C0.14301758 23.53770508 0.14301758 23.53770508 -0.98632812 23.57617188 C-6.4097 23.64979231 -6.4097 23.64979231 -8.91796875 22.046875 C-10.73063148 18.96326484 -10.66323017 15.70836948 -9.9375 12.3125 C-6.71199387 8.61265473 -3.74509817 7.75971843 1.0625 7.3125 C1.0625 6.6525 1.0625 5.9925 1.0625 5.3125 C-3.3925 5.8075 -3.3925 5.8075 -7.9375 6.3125 C-7.9375 4.6625 -7.9375 3.0125 -7.9375 1.3125 C-5.23707819 -0.0377109 -3.01298373 0.06938993 0 0 Z M-0.9375 12.3125 C-1.5975 13.6325 -2.2575 14.9525 -2.9375 16.3125 C-1.6175 16.6425 -0.2975 16.9725 1.0625 17.3125 C1.0625 15.6625 1.0625 14.0125 1.0625 12.3125 C0.4025 12.3125 -0.2575 12.3125 -0.9375 12.3125 Z " fill="#002854" transform="translate(92.9375,32.6875)"/>
<path d="M0 0 C1.59134766 -0.03867187 1.59134766 -0.03867187 3.21484375 -0.078125 C6.0625 0.25 6.0625 0.25 7.70849609 1.47875977 C9.43224827 3.73368621 9.48443166 5.09865408 9.57421875 7.91796875 C9.62739258 9.25698242 9.62739258 9.25698242 9.68164062 10.62304688 C9.70419922 11.55181641 9.72675781 12.48058594 9.75 13.4375 C9.80124023 14.84805664 9.80124023 14.84805664 9.85351562 16.28710938 C9.93598218 18.60795393 10.00513403 20.92842148 10.0625 23.25 C7.47804227 23.3581866 4.89812648 23.43737237 2.3125 23.5 C1.58289063 23.53351562 0.85328125 23.56703125 0.1015625 23.6015625 C-3.46986101 23.66649747 -5.50421899 23.57001385 -8.41796875 21.41796875 C-9.9375 19.25 -9.9375 19.25 -10.5 16.3125 C-9.7388427 12.16842135 -8.26105149 10.77878918 -4.9375 8.25 C-1.625 7.4375 -1.625 7.4375 1.0625 7.25 C1.0625 6.59 1.0625 5.93 1.0625 5.25 C-3.3925 5.745 -3.3925 5.745 -7.9375 6.25 C-7.9375 4.6 -7.9375 2.95 -7.9375 1.25 C-5.23187257 -0.10281371 -3.01856345 0.04390638 0 0 Z M-0.9375 12.25 C-1.2675 13.9 -1.5975 15.55 -1.9375 17.25 C-0.6175 17.25 0.7025 17.25 2.0625 17.25 C2.0625 15.6 2.0625 13.95 2.0625 12.25 C1.0725 12.25 0.0825 12.25 -0.9375 12.25 Z " fill="#002854" transform="translate(209.9375,32.75)"/>
<path d="M0 0 C1.09570312 0.00902344 2.19140625 0.01804687 3.3203125 0.02734375 C4.16335937 0.03894531 5.00640625 0.05054687 5.875 0.0625 C5.64613691 1.83618892 5.3910762 3.60651077 5.125 5.375 C4.98578125 6.36113281 4.8465625 7.34726563 4.703125 8.36328125 C3.71495424 11.58415857 2.75804315 12.41275864 -0.125 14.0625 C-1.115 14.3925 -2.105 14.7225 -3.125 15.0625 C-1.990625 15.536875 -0.85625 16.01125 0.3125 16.5 C3.875 18.0625 3.875 18.0625 4.875 19.0625 C5.33915678 24.40030299 5.33915678 24.40030299 3.703125 26.734375 C1.19733324 28.55482201 -0.5536896 28.46226863 -3.625 28.4375 C-4.5840625 28.44523437 -5.543125 28.45296875 -6.53125 28.4609375 C-9.125 28.0625 -9.125 28.0625 -10.98046875 26.71484375 C-12.125 25.0625 -12.125 25.0625 -11.9375 22.25 C-11.14068588 19.12403693 -10.20981243 16.09997479 -9.125 13.0625 C-9.785 12.4025 -10.445 11.7425 -11.125 11.0625 C-11.69117647 4.83455882 -11.69117647 4.83455882 -9.75 2.1875 C-6.3907683 -0.13812195 -4.0587004 -0.04317766 0 0 Z M-5.125 4.0625 C-6.42133621 5.12895115 -6.42133621 5.12895115 -6.1875 7.625 C-6.166875 8.429375 -6.14625 9.23375 -6.125 10.0625 C-4.17896726 10.65320014 -4.17896726 10.65320014 -2.125 11.0625 C-0.82866379 9.99604885 -0.82866379 9.99604885 -1.0625 7.5 C-1.083125 6.695625 -1.10375 5.89125 -1.125 5.0625 C-3.07103274 4.47179986 -3.07103274 4.47179986 -5.125 4.0625 Z M-5.125 19.0625 C-5.785 19.7225 -6.445 20.3825 -7.125 21.0625 C-6.8064823 23.17070797 -6.8064823 23.17070797 -6.125 25.0625 C-4.475 25.0625 -2.825 25.0625 -1.125 25.0625 C-0.795 23.7425 -0.465 22.4225 -0.125 21.0625 C-2.6 20.0725 -2.6 20.0725 -5.125 19.0625 Z " fill="#002854" transform="translate(168.125,67.9375)"/>
<path d="M0 0 C0 3.3 0 6.6 0 10 C0.66 9.67 1.32 9.34 2 9 C4.9375 8.6875 4.9375 8.6875 8 9 C10.8347708 11.53810874 11.00370736 13.04923371 11.29296875 16.890625 C11.27314945 18.34404009 11.23754845 19.79731167 11.1875 21.25 C11.16719727 22.36761719 11.16719727 22.36761719 11.14648438 23.5078125 C11.11127204 25.33885416 11.05746851 27.16952169 11 29 C9.35 29.33 7.7 29.66 6 30 C4.46733418 26.93466836 4.89723529 23.73245728 4.9375 20.375 C4.94201172 19.66859375 4.94652344 18.9621875 4.95117188 18.234375 C4.96296125 16.48954725 4.98089676 14.744763 5 13 C3.35 13.66 1.7 14.32 0 15 C0.01160156 15.99902344 0.02320312 16.99804688 0.03515625 18.02734375 C0.04417969 19.31769531 0.05320312 20.60804687 0.0625 21.9375 C0.07410156 23.22527344 0.08570312 24.51304688 0.09765625 25.83984375 C0 29 0 29 -1 30 C-2.65 30 -4.3 30 -6 30 C-6 20.43 -6 10.86 -6 1 C-4 0 -4 0 0 0 Z " fill="#002854" transform="translate(76,59)"/>
<path d="M0 0 C0 2.31 0 4.62 0 7 C0.99 7 1.98 7 3 7 C3 8.98 3 10.96 3 13 C2.01 13 1.02 13 0 13 C0.33 16.63 0.66 20.26 1 24 C1.66 24 2.32 24 3 24 C3 25.98 3 27.96 3 30 C1.741875 30.04125 0.48375 30.0825 -0.8125 30.125 C-1.52019531 30.14820312 -2.22789062 30.17140625 -2.95703125 30.1953125 C-5 30 -5 30 -8 28 C-8.331238 25.41751615 -8.51203417 23.02567599 -8.5625 20.4375 C-8.62497769 17.93145053 -8.76672898 15.50101968 -9 13 C-9.66 12.67 -10.32 12.34 -11 12 C-10.67 10.35 -10.34 8.7 -10 7 C-9.34 7 -8.68 7 -8 7 C-8 5.35 -8 3.7 -8 2 C-5.09399739 0.74335022 -3.20395416 0 0 0 Z " fill="#002854" transform="translate(148,26)"/>
<path d="M0 0 C36.63 0 73.26 0 111 0 C111 3.63 111 7.26 111 11 C110.01 11 109.02 11 108 11 C108 8.03 108 5.06 108 2 C72.36 2 36.72 2 0 2 C0 1.34 0 0.68 0 0 Z " fill="#002854" transform="translate(85,11)"/>
<path d="M0 0 C2.96858157 2.20740681 3.82865791 3.48597373 5 7 C5.37066773 12.00401435 5.09881835 14.98301324 2 19 C-1.75047482 21.50031654 -3.55856266 21.53603554 -8 21 C-10.9375 19.1875 -10.9375 19.1875 -13 16 C-13.98906712 10.63652221 -13.92768425 6.47849678 -11 1.8125 C-6.83239162 -0.70543006 -4.82521399 -0.68931628 0 0 Z M-5 3 C-6.66641006 3.990755 -6.66641006 3.990755 -8 6 C-8.63772451 10.43634442 -8.51756835 13.22364747 -6 17 C-4.35 16.67 -2.7 16.34 -1 16 C-1 12.37 -1 8.74 -1 5 C-2.32 4.34 -3.64 3.68 -5 3 Z " fill="#002854" transform="translate(122,68)"/>
<path d="M0 0 C2.43119623 1.87015094 3.64069173 3.28138345 5 6 C5.55512815 10.63213493 5.6364242 13.98172127 3.125 18 C0.9204655 20.074856 -0.04154934 20.97453831 -3.05859375 21.0546875 C-9.40684474 20.57518086 -9.40684474 20.57518086 -12.0625 18 C-13.70134557 12.75569417 -13.93627393 8.04277948 -11.625 3 C-8.54976766 -0.78490134 -4.59089761 -0.68181648 0 0 Z M-6 4 C-8.45811625 7.68717438 -8.31118164 9.64345704 -8 14 C-7.01 15.485 -7.01 15.485 -6 17 C-4.35 16.67 -2.7 16.34 -1 16 C0.29616272 9.71148966 0.29616272 9.71148966 -2 4 C-3.32 4 -4.64 4 -6 4 Z " fill="#002854" transform="translate(150,68)"/>
<path d="M0 0 C0.66 0.66 1.32 1.32 2 2 C2.61875 1.649375 3.2375 1.29875 3.875 0.9375 C4.926875 0.4734375 4.926875 0.4734375 6 0 C6.66 0.33 7.32 0.66 8 1 C7.67 3.64 7.34 6.28 7 9 C5.35 8.67 3.7 8.34 2 8 C1.67 13.28 1.34 18.56 1 24 C-1.64 24 -4.28 24 -7 24 C-7 16.74 -7 9.48 -7 2 C-4.69 1.34 -2.38 0.68 0 0 Z " fill="#002854" transform="translate(181,32)"/>
<path d="M0 0 C2.26875 -0.061875 4.5375 -0.12375 6.875 -0.1875 C8.78925781 -0.23970703 8.78925781 -0.23970703 10.7421875 -0.29296875 C11.81726563 -0.19628906 12.89234375 -0.09960938 14 0 C16.06723714 3.10085571 16.24497423 3.72931681 16.1953125 7.23046875 C16.18886719 8.03291016 16.18242188 8.83535156 16.17578125 9.66210938 C16.15902344 10.49548828 16.14226562 11.32886719 16.125 12.1875 C16.11597656 13.03248047 16.10695313 13.87746094 16.09765625 14.74804688 C16.07410703 16.83215243 16.03823647 18.91611217 16 21 C14.35 21 12.7 21 11 21 C10.67 15.72 10.34 10.44 10 5 C8.35 5 6.7 5 5 5 C5 10.28 5 15.56 5 21 C3.35 21 1.7 21 0 21 C0 14.07 0 7.14 0 0 Z " fill="#002854" transform="translate(90,68)"/>
<path d="M0 0 C4.62 0 9.24 0 14 0 C14 0.99 14 1.98 14 3 C11.03 3 8.06 3 5 3 C5 5.31 5 7.62 5 10 C7.64 10 10.28 10 13 10 C13 11.32 13 12.64 13 14 C10.36 14 7.72 14 5 14 C5 16.64 5 19.28 5 22 C7.97 22 10.94 22 14 22 C14 23.32 14 24.64 14 26 C11.85423363 26.02685938 9.70837355 26.04633088 7.5625 26.0625 C6.36753906 26.07410156 5.17257813 26.08570312 3.94140625 26.09765625 C1 26 1 26 0 25 C-0.08737645 23.14630389 -0.10698153 21.28932459 -0.09765625 19.43359375 C-0.09443359 18.30888672 -0.09121094 17.18417969 -0.08789062 16.02539062 C-0.07951172 14.84138672 -0.07113281 13.65738281 -0.0625 12.4375 C-0.05798828 11.24962891 -0.05347656 10.06175781 -0.04882812 8.83789062 C-0.03699686 5.89190588 -0.01906076 2.94594684 0 0 Z " fill="#00609A" transform="translate(68,0)"/>
<path d="M0 0 C4.29 0 8.58 0 13 0 C13 0.99 13 1.98 13 3 C10.36 3 7.72 3 5 3 C5 5.31 5 7.62 5 10 C7.64 10 10.28 10 13 10 C13 11.32 13 12.64 13 14 C10.36 14 7.72 14 5 14 C5 16.64 5 19.28 5 22 C7.97 22 10.94 22 14 22 C13.67 23.32 13.34 24.64 13 26 C8.71 26 4.42 26 0 26 C0 17.42 0 8.84 0 0 Z " fill="#00619B" transform="translate(52,0)"/>
<path d="M0 0 C4.29 0 8.58 0 13 0 C13 0.99 13 1.98 13 3 C10.36 3 7.72 3 5 3 C5 5.31 5 7.62 5 10 C7.64 10 10.28 10 13 10 C13 11.32 13 12.64 13 14 C10.36 14 7.72 14 5 14 C5 16.64 5 19.28 5 22 C7.97 22 10.94 22 14 22 C13.67 23.32 13.34 24.64 13 26 C8.71 26 4.42 26 0 26 C0 17.42 0 8.84 0 0 Z " fill="#00609A" transform="translate(36,0)"/>
<path d="M0 0 C2.4375 1.5625 2.4375 1.5625 4 4 C4.25 7.75 4.25 7.75 4 11 C0.37 11 -3.26 11 -7 11 C-6.67 12.65 -6.34 14.3 -6 16 C-2.7 16 0.6 16 4 16 C3.67 17.32 3.34 18.64 3 20 C-0.02437339 21.5121867 -2.66241534 21.17263369 -6 21 C-9.38031589 19.81232145 -9.93216817 19.10174775 -12 16 C-12.7809449 10.68957468 -12.89136764 6.37756817 -9.9375 1.8125 C-6.24906662 -0.46334187 -4.26303263 -0.69758716 0 0 Z M-4 3 C-5.54166642 4.37485532 -5.54166642 4.37485532 -7 6 C-7 6.66 -7 7.32 -7 8 C-5.02 8 -3.04 8 -1 8 C-1.34786708 6.02463255 -1.34786708 6.02463255 -2 4 C-2.66 3.67 -3.32 3.34 -4 3 Z " fill="#002854" transform="translate(195,68)"/>
<path d="M0 0 C1.90625 0.484375 1.90625 0.484375 4.40625 2.609375 C6.10136045 5.85833669 6.24234819 7.87131942 5.90625 11.484375 C2.27625 11.484375 -1.35375 11.484375 -5.09375 11.484375 C-4.43375 13.134375 -3.77375 14.784375 -3.09375 16.484375 C-0.45375 16.484375 2.18625 16.484375 4.90625 16.484375 C4.90625 17.804375 4.90625 19.124375 4.90625 20.484375 C1.84195224 22.01652388 -0.7103142 21.71376048 -4.09375 21.484375 C-7.22199432 20.16356073 -8.66346762 19.16891514 -10.46875 16.296875 C-11.60523514 11.18269188 -10.94398659 7.11682926 -8.53125 2.484375 C-5.54490859 0.03404358 -3.78825294 -0.2544349 0 0 Z M-2.09375 3.484375 C-3.08375 4.144375 -4.07375 4.804375 -5.09375 5.484375 C-5.09375 6.474375 -5.09375 7.464375 -5.09375 8.484375 C-3.11375 8.484375 -1.13375 8.484375 0.90625 8.484375 C0.55838292 6.50900755 0.55838292 6.50900755 -0.09375 4.484375 C-0.75375 4.154375 -1.41375 3.824375 -2.09375 3.484375 Z " fill="#002854" transform="translate(47.09375,67.515625)"/>
<path d="M0 0 C6.27 0 12.54 0 19 0 C19 1.32 19 2.64 19 4 C16.69 4 14.38 4 12 4 C12 11.92 12 19.84 12 28 C10.35 28 8.7 28 7 28 C6.09098061 24.95157135 5.93826633 22.40338364 6.12109375 19.234375 C6.16943359 18.34492187 6.21777344 17.45546875 6.26757812 16.5390625 C6.32365234 15.61867188 6.37972656 14.69828125 6.4375 13.75 C6.51581055 12.34621094 6.51581055 12.34621094 6.59570312 10.9140625 C6.72506825 8.60901113 6.86002034 6.30442711 7 4 C4.69 4 2.38 4 0 4 C0 2.68 0 1.36 0 0 Z " fill="#002854" transform="translate(21,61)"/>
<path d="M0 0 C0.33 7.92 0.66 15.84 1 24 C-1.97 24 -4.94 24 -8 24 C-8 16.74 -8 9.48 -8 2 C-1 0 -1 0 0 0 Z " fill="#002854" transform="translate(198,32)"/>
<path d="M0 0 C0 7.92 0 15.84 0 24 C-2.64 24 -5.28 24 -8 24 C-8 16.74 -8 9.48 -8 2 C-1 0 -1 0 0 0 Z " fill="#002854" transform="translate(136,32)"/>
<path d="M0 0 C1.8871875 0.061875 1.8871875 0.061875 3.8125 0.125 C4.1425 1.775 4.4725 3.425 4.8125 5.125 C1.8425 4.63 1.8425 4.63 -1.1875 4.125 C-1.1875 5.115 -1.1875 6.105 -1.1875 7.125 C1.7195643 9.28526765 1.7195643 9.28526765 4.8125 11.125 C5.8125 12.125 5.8125 12.125 6.1875 14.4375 C5.8125 17.125 5.8125 17.125 3.75 19.4375 C0.15593331 21.50217661 -2.10275704 21.51035311 -6.1875 21.125 C-6.8475 20.795 -7.5075 20.465 -8.1875 20.125 C-8.1875 18.805 -8.1875 17.485 -8.1875 16.125 C-5.5475 16.455 -2.9075 16.785 -0.1875 17.125 C-0.1875 15.805 -0.1875 14.485 -0.1875 13.125 C-0.950625 12.856875 -1.71375 12.58875 -2.5 12.3125 C-6.68401972 10.4637471 -6.68401972 10.4637471 -8.1875 8.125 C-8.0625 5.0625 -8.0625 5.0625 -7.1875 2.125 C-4.09861478 0.06574319 -3.47814073 -0.1140374 0 0 Z " fill="#002854" transform="translate(208.1875,67.875)"/>
<path d="M0 0 C1.4540625 0.0309375 1.4540625 0.0309375 2.9375 0.0625 C3.5625 2.875 3.5625 2.875 3.9375 6.0625 C2.9475 7.5475 2.9475 7.5475 1.9375 9.0625 C1.76942709 11.27588406 1.76942709 11.27588406 1.99609375 13.6953125 C2.05216797 14.58347656 2.10824219 15.47164062 2.16601562 16.38671875 C2.23498047 17.31097656 2.30394531 18.23523438 2.375 19.1875 C2.50321465 21.0231276 2.62715168 22.85906076 2.74609375 24.6953125 C2.80595459 25.50887207 2.86581543 26.32243164 2.92749023 27.16064453 C2.93079346 27.78825684 2.93409668 28.41586914 2.9375 29.0625 C1.9375 30.0625 1.9375 30.0625 -0.625 30.125 C-1.429375 30.104375 -2.23375 30.08375 -3.0625 30.0625 C-3.0625 22.72916667 -3.0625 15.39583333 -3.0625 8.0625 C-3.7225 7.4025 -4.3825 6.7425 -5.0625 6.0625 C-4.33395709 0.0884481 -4.33395709 0.0884481 0 0 Z " fill="#002854" transform="translate(178.0625,58.9375)"/>
<path d="M0 0 C1.8871875 0.061875 1.8871875 0.061875 3.8125 0.125 C4.1425 1.445 4.4725 2.765 4.8125 4.125 C2.35175394 5.35537303 0.5327437 5.125 -2.1875 5.125 C-3.42017348 6.13336062 -3.42017348 6.13336062 -3.28515625 8.19140625 C-3.27355469 9.01511719 -3.26195312 9.83882812 -3.25 10.6875 C-3.24097656 11.51378906 -3.23195313 12.34007813 -3.22265625 13.19140625 C-3.21105469 13.82949219 -3.19945312 14.46757813 -3.1875 15.125 C0.79004128 15.85834429 0.79004128 15.85834429 4.8125 16.125 C4.8125 17.445 4.8125 18.765 4.8125 20.125 C1.31923832 21.87163084 -2.47521852 20.98325223 -6.1875 20.125 C-9.14438943 17.81493014 -9.22811122 15.94515029 -10.0625 12.25 C-10.4454725 8.14453475 -9.49813935 5.59095903 -7.1875 2.125 C-4.09861478 0.06574319 -3.47814073 -0.1140374 0 0 Z " fill="#002854" transform="translate(64.1875,67.875)"/>
<path d="M0 0 C0.16728213 4.11149887 0.32787468 8.22319806 0.48217773 12.33520508 C0.53566026 13.73501681 0.59099434 15.13475904 0.64819336 16.53442383 C0.72992949 18.5422896 0.80453025 20.55044187 0.87890625 22.55859375 C0.9260376 23.76829834 0.97316895 24.97800293 1.02172852 26.22436523 C1 29 1 29 0 30 C-1.65 30 -3.3 30 -5 30 C-5 20.43 -5 10.86 -5 1 C-3 0 -3 0 0 0 Z " fill="#002854" transform="translate(134,59)"/>
<path d="M0 0 C1.65 0 3.3 0 5 0 C5 8.58 5 17.16 5 26 C3.35 26 1.7 26 0 26 C0 17.42 0 8.84 0 0 Z " fill="#00619B" transform="translate(27,0)"/>
<path d="M0 0 C1.2375 0.1546875 1.2375 0.1546875 2.5 0.3125 C4.5 3.3125 4.5 3.3125 4.125 6 C3.91875 6.763125 3.7125 7.52625 3.5 8.3125 C0.625 8.9375 0.625 8.9375 -2.5 9.3125 C-4.5 7.3125 -4.5 7.3125 -4.75 4.8125 C-4.40047575 1.3172575 -3.47557682 0.4344471 0 0 Z " fill="#B90C2D" transform="translate(194.5,22.6875)"/>
<path d="M0 0 C1.4540625 0.0309375 1.4540625 0.0309375 2.9375 0.0625 C4.0625 5.8125 4.0625 5.8125 2.9375 8.0625 C1.125 8.875 1.125 8.875 -1.0625 9.0625 C-3.3125 7.625 -3.3125 7.625 -5.0625 6.0625 C-3.98897059 0.08140756 -3.98897059 0.08140756 0 0 Z " fill="#E77521" transform="translate(178.0625,58.9375)"/>
<path d="M0 0 C1.4540625 0.0309375 1.4540625 0.0309375 2.9375 0.0625 C3.5975 1.7125 4.2575 3.3625 4.9375 5.0625 C3.6175 6.3825 2.2975 7.7025 0.9375 9.0625 C-1.5375 8.0725 -1.5375 8.0725 -4.0625 7.0625 C-4.10504356 5.06295254 -4.10330783 3.06208364 -4.0625 1.0625 C-3.0625 0.0625 -3.0625 0.0625 0 0 Z " fill="#00B2DE" transform="translate(132.0625,22.9375)"/>
</svg>
