<?xml version="1.0" encoding="UTF-8"?>
<svg version="1.1" xmlns="http://www.w3.org/2000/svg" width="324" height="106">
<path d="M0 0 C0.66 0 1.32 0 2 0 C2.08636719 0.87398438 2.17273438 1.74796875 2.26171875 2.6484375 C3.20847647 10.934739 4.79395109 18.63492025 7.41088867 26.56787109 C9.19941364 32.34618254 9.79150967 38.41698066 7 44 C7.66 43.67 8.32 43.34 9 43 C11.2421875 42.76171875 11.2421875 42.76171875 13.875 42.6875 C14.73867187 42.65011719 15.60234375 42.61273438 16.4921875 42.57421875 C19 43 19 43 20.87109375 44.984375 C23.88503221 47.83793876 26.1013929 47.5000213 30.1875 47.5625 C36.31586787 47.77143853 41.34313125 48.5616945 47 51 C47.33 51.66 47.66 52.32 48 53 C46.72125 52.89300781 45.4425 52.78601562 44.125 52.67578125 C42.41673251 52.55376214 40.70839502 52.43272039 39 52.3125 C37.74123047 52.20325195 37.74123047 52.20325195 36.45703125 52.09179688 C30.48620336 51.69837023 26.42062063 52.40700611 21 55 C18.08871621 58.30470052 16.83295621 61.41403326 15.625 65.5625 C13.86378052 71.11639846 10.79910296 73.52810094 5.80859375 76.15234375 C0.04467384 78.75212143 -5.23436589 79.51558442 -11.53125 79.7265625 C-14.17581519 79.75917103 -14.17581519 79.75917103 -16 82 C-15.401875 82.061875 -14.80375 82.12375 -14.1875 82.1875 C-12 83 -12 83 -10.25 85.1875 C-8.84173016 88.35610715 -8.76070776 90.57014455 -9 94 C-10.485 94.495 -10.485 94.495 -12 95 C-13.70855022 98.00007271 -13.70855022 98.00007271 -15 101 C-16.32 101 -17.64 101 -19 101 C-19.33 100.34 -19.66 99.68 -20 99 C-21.32 100.98 -22.64 102.96 -24 105 C-28.875 104.125 -28.875 104.125 -30 103 C-30 88.61989021 -18.9789078 76.23972727 -11 65 C-11.53367187 65.2165625 -12.06734375 65.433125 -12.6171875 65.65625 C-24.31243735 70.0267932 -32.80829809 67.38537232 -44.03326416 63.0411377 C-57.91523619 57.69536108 -71.06092687 53.9679745 -86 53 C-86 52.34 -86 51.68 -86 51 C-71.25657337 42.95813093 -55.03020751 43.14384446 -38.75 45.3125 C-37.71456055 45.44712646 -36.67912109 45.58175293 -35.61230469 45.72045898 C-32.40730798 46.14048635 -29.2036846 46.5700938 -26 47 C-24.9790625 47.13341797 -23.958125 47.26683594 -22.90625 47.40429688 C-20.0196438 47.78203636 -17.1346629 48.17022454 -14.25 48.5625 C-12.93854004 48.73422729 -12.93854004 48.73422729 -11.60058594 48.90942383 C-10.38290527 49.07994263 -10.38290527 49.07994263 -9.140625 49.25390625 C-8.08149902 49.39807983 -8.08149902 49.39807983 -7.00097656 49.54516602 C-4.77607432 50.05089965 -2.99528125 50.90751917 -1 52 C-0.505 51.01 -0.505 51.01 0 50 C-1.32 50 -2.64 50 -4 50 C-4.85922729 41.28498037 -5.18250826 32.56527735 -5.3125 23.8125 C-5.34214844 22.81605469 -5.37179688 21.81960937 -5.40234375 20.79296875 C-5.45978253 13.53653591 -4.03906637 7.60046022 -1 1 C-0.67 0.67 -0.34 0.34 0 0 Z " fill="#A13E88" transform="translate(86,0)"/>
<path d="M0 0 C1.03471436 0.13390137 2.06942871 0.26780273 3.13549805 0.40576172 C6.34154162 0.82444048 9.54596566 1.25372757 12.75 1.6875 C13.77625488 1.82623535 14.80250977 1.9649707 15.85986328 2.10791016 C18.7616011 2.50353768 21.66229635 2.90578897 24.5625 3.3125 C25.44518555 3.43536377 26.32787109 3.55822754 27.23730469 3.68481445 C28.05231445 3.80171631 28.86732422 3.91861816 29.70703125 4.0390625 C30.77401245 4.19109131 30.77401245 4.19109131 31.86254883 4.34619141 C33.75 4.6875 33.75 4.6875 36.75 5.6875 C36.75 6.3475 36.75 7.0075 36.75 7.6875 C36.09 7.6875 35.43 7.6875 34.75 7.6875 C34.75 9.3375 34.75 10.9875 34.75 12.6875 C34.09 12.6875 33.43 12.6875 32.75 12.6875 C32.42 13.6775 32.09 14.6675 31.75 15.6875 C30.76 15.6875 29.77 15.6875 28.75 15.6875 C28.75 16.6775 28.75 17.6675 28.75 18.6875 C27.30249987 19.3773724 25.84103089 20.03793554 24.375 20.6875 C23.56289062 21.05875 22.75078125 21.43 21.9140625 21.8125 C12.00703961 24.55221991 3.92574404 21.29266559 -5.28326416 17.7286377 C-19.16523619 12.38286108 -32.31092687 8.6554745 -47.25 7.6875 C-47.25 7.0275 -47.25 6.3675 -47.25 5.6875 C-32.50588521 -2.35474443 -16.28081324 -2.16758356 0 0 Z " fill="#C54291" transform="translate(47.25,45.3125)"/>
<path d="M0 0 C0.66 0 1.32 0 2 0 C2.08636719 0.87398438 2.17273438 1.74796875 2.26171875 2.6484375 C3.21528737 10.99434999 4.85134652 18.79673035 7.32299805 26.83154297 C8.58436252 31.0241545 9.26627219 34.56446594 9 39 C8.34 39 7.68 39 7 39 C6.731875 40.093125 6.46375 41.18625 6.1875 42.3125 C4.5511811 47.39370079 4.5511811 47.39370079 2 49 C0.3338744 49.04246497 -1.33397387 49.04620301 -3 49 C-3.06058594 48.14535156 -3.12117188 47.29070313 -3.18359375 46.41015625 C-3.26738281 45.30542969 -3.35117188 44.20070312 -3.4375 43.0625 C-3.51871094 41.96035156 -3.59992188 40.85820313 -3.68359375 39.72265625 C-3.70418084 37.08890097 -3.70418084 37.08890097 -5 36 C-5.31258352 32.2170927 -5.27874377 28.41920021 -5.3125 24.625 C-5.34150391 23.57699219 -5.37050781 22.52898438 -5.40039062 21.44921875 C-5.46070996 13.94178093 -4.18430145 7.82130887 -1 1 C-0.67 0.67 -0.34 0.34 0 0 Z " fill="#C23D87" transform="translate(86,0)"/>
<path d="M0 0 C1.66965451 -0.31802943 3.33678518 -0.64984951 5 -1 C6 0 6 0 6.11352539 2.04125977 C6.10828857 2.91580811 6.10305176 3.79035645 6.09765625 4.69140625 C6.09443359 5.63564453 6.09121094 6.57988281 6.08789062 7.55273438 C6.07951172 8.54595703 6.07113281 9.53917969 6.0625 10.5625 C6.05798828 11.55958984 6.05347656 12.55667969 6.04882812 13.58398438 C6.03700007 16.05604849 6.02051849 18.52799518 6 21 C3.45651575 21.13593443 0.92038504 21.23448907 -1.625 21.3125 C-2.33785156 21.35439453 -3.05070313 21.39628906 -3.78515625 21.43945312 C-7.73711771 21.53009444 -10.2736264 21.22075743 -13.453125 18.7578125 C-16.59400051 15.35680313 -17.02295854 13.67370271 -17.23828125 9.21875 C-16.85446191 5.64482569 -15.36759726 3.62355372 -13 1 C-8.98483814 -1.94445203 -4.55828975 -1.51942992 0 0 Z M-9.1875 5.6875 C-11.17464683 7.86184733 -11.17464683 7.86184733 -11.5 10.5625 C-11.18850915 13.09170395 -11.18850915 13.09170395 -9.375 14.875 C-6.23335013 16.36314994 -4.30955864 15.82738966 -1 15 C-0.14612895 11.69432511 -0.14612895 11.69432511 0 8 C-1.60549147 5.47688989 -1.60549147 5.47688989 -4 4 C-7.06456796 3.69459827 -7.06456796 3.69459827 -9.1875 5.6875 Z " fill="#1B1819" transform="translate(244,71)"/>
<path d="M0 0 C0.66 -0.33 1.32 -0.66 2 -1 C8.1726283 -1.45723173 8.1726283 -1.45723173 11.375 0.3125 C14.86382159 3.93550703 14.11581279 8.49187322 14.0625 13.1875 C14.05798828 13.93708984 14.05347656 14.68667969 14.04882812 15.45898438 C14.03706354 17.30602383 14.01912865 19.15302213 14 21 C12.02 21 10.04 21 8 21 C7.67 15.72 7.34 10.44 7 5 C5.35 5 3.7 5 2 5 C-0.85793316 7.85793316 -0.40799941 10.14665584 -0.625 14.125 C-0.73714844 16.04699219 -0.73714844 16.04699219 -0.8515625 18.0078125 C-0.90054688 18.99523437 -0.94953125 19.98265625 -1 21 C-2.98 21 -4.96 21 -7 21 C-7 14.07 -7 7.14 -7 0 C-4.33059475 -1.33470263 -2.86667247 -0.57333449 0 0 Z " fill="#1A1717" transform="translate(143,71)"/>
<path d="M0 0 C3.75540963 3.02519109 5.07734012 5.45588663 5.6875 10.25 C5.17208357 14.44696239 3.88960991 16.5518054 1.25 19.8125 C-2.46291331 21.66895665 -6.69743234 21.25285775 -10.75 20.8125 C-13.83085647 19.27207177 -15.13588317 18.12318454 -16.59375 15.01171875 C-17.86617538 11.11112903 -17.81203938 9.03511189 -16.6875 5 C-12.75327992 -1.47242658 -7.03807547 -3.03916895 0 0 Z M-11.75 7.8125 C-11.48343428 10.74693402 -11.48343428 10.74693402 -10.75 13.8125 C-7.92282787 16.14546251 -7.92282787 16.14546251 -4.6875 15.5625 C-1.650541 15.0531756 -1.650541 15.0531756 0.25 12.8125 C0.16256309 9.28355052 0.16256309 9.28355052 -0.75 5.8125 C-5.823573 2.430118 -7.50639525 4.14235535 -11.75 7.8125 Z " fill="#1B1819" transform="translate(295.75,71.1875)"/>
<path d="M0 0 C2.91935191 2.43279326 4.0247927 4.26744516 5.25 7.875 C5.64772834 12.59224312 4.81411143 15.18070901 1.8125 18.875 C-1.70807403 21.36661398 -5.16863704 21.65671839 -9.40234375 21.4140625 C-12.42241269 20.72060241 -14.24905202 19.37976333 -15.97265625 16.78515625 C-17.46439654 13.11952309 -17.50731674 9.73043068 -16.75 5.875 C-13.06789378 -1.23527409 -7.60634208 -3.1116854 0 0 Z M-12.75 7.875 C-12.39301497 10.51668921 -11.997692 12.48390736 -10.5625 14.75 C-8.67039564 16.16640605 -8.67039564 16.16640605 -5.6875 15.6875 C-2.65484132 15.10851637 -2.65484132 15.10851637 -0.75 12.875 C-0.83743691 9.34605052 -0.83743691 9.34605052 -1.75 5.875 C-6.823573 2.492618 -8.50639525 4.20485535 -12.75 7.875 Z " fill="#1B1819" transform="translate(201.75,71.125)"/>
<path d="M0 0 C0.66 -0.33 1.32 -0.66 2 -1 C5.3736407 -1.24989931 8.05366774 -1.38956788 11.2109375 -0.08984375 C14.17676626 3.37460688 13.41697605 7.29795646 13.25 11.6875 C13.23195313 12.58017578 13.21390625 13.47285156 13.1953125 14.39257812 C13.14817759 16.59613504 13.08240657 18.79752601 13 21 C11.68 21 10.36 21 9 21 C8.93941406 20.16855469 8.87882812 19.33710937 8.81640625 18.48046875 C8.69072266 16.85044922 8.69072266 16.85044922 8.5625 15.1875 C8.48128906 14.10855469 8.40007812 13.02960938 8.31640625 11.91796875 C8.09787539 8.94010095 8.09787539 8.94010095 7 6 C5.1477633 4.99521963 5.1477633 4.99521963 3 5 C1.26946342 6.03892426 1.26946342 6.03892426 0 8 C-0.58092992 11.19245998 -0.58092992 11.19245998 -0.6875 14.6875 C-0.75324219 15.86699219 -0.81898438 17.04648438 -0.88671875 18.26171875 C-0.92410156 19.16535156 -0.96148437 20.06898437 -1 21 C-2.98 21 -4.96 21 -7 21 C-7 14.07 -7 7.14 -7 0 C-4.33059475 -1.33470263 -2.86667247 -0.57333449 0 0 Z " fill="#1B1819" transform="translate(311,71)"/>
<path d="M0 0 C2.475 0.495 2.475 0.495 5 1 C5.66 0.67 6.32 0.34 7 0 C10.85382734 -0.36356862 13.26177024 -0.39251697 16.7109375 1.44140625 C20.07582655 5.20250237 19.55946412 8.3867066 19.3125 13.25 C19.28994141 14.09046875 19.26738281 14.9309375 19.24414062 15.796875 C19.18537714 17.86534964 19.09569885 19.93290488 19 22 C17.35 22 15.7 22 14 22 C13.92652344 20.64455078 13.92652344 20.64455078 13.8515625 19.26171875 C13.77679688 18.08222656 13.70203125 16.90273437 13.625 15.6875 C13.55539063 14.51574219 13.48578125 13.34398438 13.4140625 12.13671875 C13.21386253 8.84300113 13.21386253 8.84300113 11 6 C9.35 6.33 7.7 6.66 6 7 C4.9458482 10.16245541 4.68724328 12.86948218 4.4375 16.1875 C4.35371094 17.27417969 4.26992187 18.36085938 4.18359375 19.48046875 C4.12300781 20.31191406 4.06242188 21.14335938 4 22 C2.68 22 1.36 22 0 22 C0 14.74 0 7.48 0 0 Z " fill="#1C1919" transform="translate(162,70)"/>
<path d="M0 0 C1.98 0 3.96 0 6 0 C6 1.98 6 3.96 6 6 C7.65 6.33 9.3 6.66 11 7 C11 8.32 11 9.64 11 11 C9.35 11 7.7 11 6 11 C6.33 14.63 6.66 18.26 7 22 C8.65 22.33 10.3 22.66 12 23 C12 24.65 12 26.3 12 28 C10.56416999 28.10836453 9.1259798 28.18576167 7.6875 28.25 C6.88699219 28.29640625 6.08648437 28.3428125 5.26171875 28.390625 C3 28 3 28 1.21875 26.40625 C-0.39814904 23.21391087 -0.29429009 20.80966967 -0.1875 17.25 C-0.16042969 16.07953125 -0.13335937 14.9090625 -0.10546875 13.703125 C-0.07066406 12.81109375 -0.03585938 11.9190625 0 11 C-1.32 11 -2.64 11 -4 11 C-4 9.68 -4 8.36 -4 7 C-2.68 6.67 -1.36 6.34 0 6 C0 4.02 0 2.04 0 0 Z " fill="#1A1717" transform="translate(256,64)"/>
<path d="M0 0 C2.38671875 0.12109375 2.38671875 0.12109375 5 1 C6.58203125 3.28515625 6.58203125 3.28515625 7.8125 6.0625 C8.23144531 6.98160156 8.65039062 7.90070313 9.08203125 8.84765625 C9.38496094 9.55792969 9.68789062 10.26820312 10 11 C10.30292969 10.28972656 10.60585937 9.57945313 10.91796875 8.84765625 C11.33691406 7.92855469 11.75585938 7.00945312 12.1875 6.0625 C12.59355469 5.14597656 12.99960938 4.22945313 13.41796875 3.28515625 C15 1 15 1 17.67578125 0.18359375 C18.44277344 0.12300781 19.20976562 0.06242187 20 0 C21.2051933 3.61557991 20.74896968 4.14251394 19.12890625 7.44921875 C18.71962891 8.29677734 18.31035156 9.14433594 17.88867188 10.01757812 C17.2322168 11.33918945 17.2322168 11.33918945 16.5625 12.6875 C16.12873047 13.58017578 15.69496094 14.47285156 15.24804688 15.39257812 C14.17408871 17.59950314 13.091161 19.80154313 12 22 C10.68 22 9.36 22 8 22 C6.67997444 19.44113496 5.36886218 16.87832932 4.0625 14.3125 C3.68931641 13.59126953 3.31613281 12.87003906 2.93164062 12.12695312 C-0.63188992 5.09620367 -0.63188992 5.09620367 -1 1 C-0.67 0.67 -0.34 0.34 0 0 Z " fill="#1A1718" transform="translate(207,70)"/>
<path d="M0 0 C4.51219512 -0.36585366 4.51219512 -0.36585366 6.625 1.21875 C8.33941089 3.43969138 8.48626797 4.91049803 8.6875 7.6875 C8.78611328 8.89986328 8.78611328 8.89986328 8.88671875 10.13671875 C8.92410156 10.75160156 8.96148437 11.36648437 9 12 C8.01 12.33 7.02 12.66 6 13 C4.29144978 16.00007271 4.29144978 16.00007271 3 19 C1.68 19 0.36 19 -1 19 C-1.33 18.34 -1.66 17.68 -2 17 C-2.99 18.32 -3.98 19.64 -5 21 C-4.04296522 13.61394333 -2.95870791 6.85882288 0 0 Z " fill="#69336D" transform="translate(68,82)"/>
<path d="M0 0 C0 6.93 0 13.86 0 21 C-1.98 21 -3.96 21 -6 21 C-6 14.07 -6 7.14 -6 0 C-4 -1 -4 -1 0 0 Z " fill="#191617" transform="translate(132,71)"/>
<path d="M0 0 C1.65 0 3.3 0 5 0 C5 7.26 5 14.52 5 22 C3.35 22 1.7 22 0 22 C0 14.74 0 7.48 0 0 Z " fill="#1F1B1B" transform="translate(270,70)"/>
<path d="M0 0 C2.3125 0.8125 2.3125 0.8125 3.3125 1.8125 C3.4375 5.3125 3.4375 5.3125 3.3125 8.8125 C2.3125 9.8125 2.3125 9.8125 0.46484375 9.91015625 C-1.5859375 9.87760417 -3.63671875 9.84505208 -5.6875 9.8125 C-6.4375 7.0625 -6.4375 7.0625 -6.6875 3.8125 C-4.63730269 0.73720403 -3.75659144 -0.26208777 0 0 Z M-1.6875 2.8125 C-2.3475 4.1325 -3.0075 5.4525 -3.6875 6.8125 C-1.7075 7.8025 -1.7075 7.8025 0.3125 8.8125 C0.3125 6.8325 0.3125 4.8525 0.3125 2.8125 C-0.3475 2.8125 -1.0075 2.8125 -1.6875 2.8125 Z " fill="#181516" transform="translate(296.6875,96.1875)"/>
<path d="M0 0 C1.32 0.33 2.64 0.66 4 1 C5.32 0.67 6.64 0.34 8 0 C8 2.97 8 5.94 8 9 C5.36 9 2.72 9 0 9 C0 6.03 0 3.06 0 0 Z " fill="#171415" transform="translate(146,97)"/>
<path d="M0 0 C0.928125 0.20625 1.85625 0.4125 2.8125 0.625 C3.1425 1.945 3.4725 3.265 3.8125 4.625 C0.8425 4.13 0.8425 4.13 -2.1875 3.625 C-2.1875 4.945 -2.1875 6.265 -2.1875 7.625 C-0.2075 7.295 1.7725 6.965 3.8125 6.625 C3.4825 7.615 3.1525 8.605 2.8125 9.625 C-3.2421875 9.8203125 -3.2421875 9.8203125 -5.1875 9.625 C-5.8475 8.965 -6.5075 8.305 -7.1875 7.625 C-7 4.625 -7 4.625 -6.1875 1.625 C-3.1875 -0.375 -3.1875 -0.375 0 0 Z " fill="#110E0F" transform="translate(177.1875,96.375)"/>
<path d="M0 0 C0.99 0 1.98 0 3 0 C3 2.31 3 4.62 3 7 C3.66 7 4.32 7 5 7 C5 4.69 5 2.38 5 0 C5.99 0 6.98 0 8 0 C8.09765625 6.15234375 8.09765625 6.15234375 8 8 C7 9 7 9 4 9.125 C1 9 1 9 0 8 C-0.14115161 5.32941149 -0.04247107 2.67567762 0 0 Z " fill="#161314" transform="translate(197,97)"/>
<path d="M0 0 C3 0.125 3 0.125 4 1.125 C4.1875 3.5625 4.1875 3.5625 4 6.125 C3.34 6.785 2.68 7.445 2 8.125 C-2.55555556 7.56944444 -2.55555556 7.56944444 -4 6.125 C-4.125 3.625 -4.125 3.625 -4 1.125 C-3 0.125 -3 0.125 0 0 Z " fill="#161415" transform="translate(129,59.875)"/>
<path d="M0 0 C2.31 0 4.62 0 7 0 C7 2.97 7 5.94 7 9 C4.69 9 2.38 9 0 9 C0 6.03 0 3.06 0 0 Z M3 2 C3 2.99 3 3.98 3 5 C3.66 5 4.32 5 5 5 C5 4.01 5 3.02 5 2 C4.34 2 3.68 2 3 2 Z " fill="#181515" transform="translate(317,97)"/>
<path d="M0 0 C1.99954746 -0.04254356 4.00041636 -0.04080783 6 0 C7 1 7 1 7.09765625 2.84765625 C7.06510417 4.8984375 7.03255208 6.94921875 7 9 C4.69 9 2.38 9 0 9 C0 6.03 0 3.06 0 0 Z M2 2 C2.33 2.66 2.66 3.32 3 4 C3.33 3.34 3.66 2.68 4 2 C3.34 2 2.68 2 2 2 Z M2 6 C2 6.66 2 7.32 2 8 C2.66 8 3.32 8 4 8 C4 7.34 4 6.68 4 6 C3.34 6 2.68 6 2 6 Z " fill="#171415" transform="translate(222,97)"/>
<path d="M0 0 C0.33 0 0.66 0 1 0 C1 3.96 1 7.92 1 12 C3.91398245 11.58849847 3.91398245 11.58849847 7 10 C8.70000868 7.47574469 9.88320612 4.82483159 11 2 C12.29173511 5.87520533 11.60850054 7.29022129 10 11 C7.8359375 13.5546875 7.8359375 13.5546875 5.375 15.875 C4.55773437 16.65617187 3.74046875 17.43734375 2.8984375 18.2421875 C2.27195312 18.82226562 1.64546875 19.40234375 1 20 C0.67 18.68 0.34 17.36 0 16 C0.99 15.67 1.98 15.34 3 15 C3.33 14.34 3.66 13.68 4 13 C2.68 13 1.36 13 0 13 C0 8.71 0 4.42 0 0 Z " fill="#662048" transform="translate(82,37)"/>
<path d="M0 0 C0.99 0 1.98 0 3 0 C3.99 2.97 4.98 5.94 6 9 C3.03 9 0.06 9 -3 9 C-2.01 6.03 -1.02 3.06 0 0 Z " fill="#151213" transform="translate(247,97)"/>
<path d="M0 0 C2.5 0.125 2.5 0.125 3.5 1.125 C3.6875 3.5625 3.6875 3.5625 3.5 6.125 C2.84 6.785 2.18 7.445 1.5 8.125 C-2.03571429 7.58928571 -2.03571429 7.58928571 -3.5 6.125 C-3.625 3.625 -3.625 3.625 -3.5 1.125 C-2.5 0.125 -2.5 0.125 0 0 Z " fill="#1B1718" transform="translate(272.5,59.875)"/>
<path d="M0 0 C2.20770805 -0.08165496 4.41630425 -0.13948488 6.625 -0.1875 C7.85476562 -0.22230469 9.08453125 -0.25710937 10.3515625 -0.29296875 C14.26407664 0.0212053 16.64070218 1.03093467 20 3 C20 3.33 20 3.66 20 4 C13.84765625 4.09765625 13.84765625 4.09765625 12 4 C11.67 3.67 11.34 3.34 11 3 C9.15400312 2.60545777 7.29774178 2.25823134 5.4375 1.9375 C3.91962891 1.67259766 3.91962891 1.67259766 2.37109375 1.40234375 C1.58863281 1.26957031 0.80617188 1.13679688 0 1 C0 0.67 0 0.34 0 0 Z " fill="#9B3779" transform="translate(114,49)"/>
<path d="M0 0 C2.31 0 4.62 0 7 0 C7 0.66 7 1.32 7 2 C6.01 2 5.02 2 4 2 C4 4.31 4 6.62 4 9 C3.34 9 2.68 9 2 9 C2 6.69 2 4.38 2 2 C1.34 2 0.68 2 0 2 C0 1.34 0 0.68 0 0 Z " fill="#1A1718" transform="translate(268,97)"/>
<path d="M0 0 C0.66 0 1.32 0 2 0 C2.33 4.95 2.66 9.9 3 15 C1.04783565 11.09567131 0.49360009 8.27786748 0 4 C-0.99 4.495 -0.99 4.495 -2 5 C-1.34 3.35 -0.68 1.7 0 0 Z " fill="#8C2D61" transform="translate(86,0)"/>
<path d="M0 0 C1.98 0 3.96 0 6 0 C5.01 1.485 5.01 1.485 4 3 C3.34 2.67 2.68 2.34 2 2 C1.67 4.31 1.34 6.62 1 9 C0.67 9 0.34 9 0 9 C0 6.03 0 3.06 0 0 Z " fill="#0E0D0E" transform="translate(222,97)"/>
<path d="M0 0 C0.7425 0.185625 1.485 0.37125 2.25 0.5625 C4.94990963 0.99203108 6.44631077 0.85122974 9 0 C8.67 0.99 8.34 1.98 8 3 C5.36 3 2.72 3 0 3 C0 2.01 0 1.02 0 0 Z " fill="#191617" transform="translate(172,103)"/>
<path d="M0 0 C-0.99 0.66 -1.98 1.32 -3 2 C-3 2.99 -3 3.98 -3 5 C-3.66 5 -4.32 5 -5 5 C-5.33 5.66 -5.66 6.32 -6 7 C-6.33 5.02 -6.66 3.04 -7 1 C-3.375 -1.125 -3.375 -1.125 0 0 Z " fill="#0E0C0C" transform="translate(297,99)"/>
<path d="M0 0 C0.66 0 1.32 0 2 0 C2 2.97 2 5.94 2 9 C1.34 9 0.68 9 0 9 C0 6.03 0 3.06 0 0 Z " fill="#0F0E0F" transform="translate(127,97)"/>
</svg>
