<svg width="259" height="58" viewBox="0 0 259 58" fill="none" xmlns="http://www.w3.org/2000/svg">
<g clip-path="url(#clip0_28365_16337)">
<path fill-rule="evenodd" clip-rule="evenodd" d="M7.173 21.871C7.173 10.507 14.058 1.3005 22.2359 1.3005C30.7008 1.3005 37.2976 10.507 37.2976 21.871C37.2976 33.2339 30.5578 42.4404 22.2359 42.4404C14.058 42.4404 7.173 33.236 7.173 21.871ZM122.803 43.1603C122.803 43.1603 120.363 48.6284 113.478 48.6284C107.308 48.6284 104.296 43.1603 104.296 43.1603H49.78C49.78 43.1603 49.6382 44.0235 48.7751 46.8997C47.7713 49.9215 46.6234 51.3602 46.6234 51.3602C40.3113 57.8327 35.5759 50.2093 30.4127 46.0376C28.6909 44.7444 26.8251 43.8801 25.1055 43.5913C36.1531 42.2981 44.7609 33.0905 44.7609 21.871C44.7609 9.7882 34.7183 0.00732422 22.5228 0.00732422C10.3285 0.00732422 0 9.7882 0 21.871C0 32.8028 8.32086 41.8649 19.0804 43.4491C6.60017 46.0376 5.88221 57.5471 5.88221 57.5471C5.88221 57.5471 6.17027 56.9705 6.88822 55.6763C7.74802 54.2376 9.90079 50.9292 12.3405 48.9161C15.0651 46.7586 20.3755 44.1679 25.9675 46.3265C31.7057 48.3395 33.7155 56.3962 41.3173 56.6839C49.2083 56.9716 51.3611 47.7651 51.791 45.1755H102.864C103.869 46.1831 107.023 50.6425 113.335 50.6425C120.365 50.6425 122.948 46.1831 123.665 45.1755H134.998V43.1624H122.803V43.1603Z" fill="white"/>
<path fill-rule="evenodd" clip-rule="evenodd" d="M65.5457 34.3493C65.2435 34.9281 64.7656 35.4543 64.1153 35.9018C63.4999 36.323 62.7001 36.6107 61.7355 36.7694C60.7655 36.9269 59.4987 37.0068 57.9777 37.0068H53.6362V27.3134H58.8506C59.9985 27.3134 60.9881 27.3605 61.7879 27.4458C62.5811 27.5311 63.2707 27.7215 63.8207 28.0169C64.6401 28.4447 65.2173 28.9709 65.5261 29.5825C65.8414 30.1941 65.9985 31.0431 65.9985 32.0879C65.9985 33.008 65.8469 33.7717 65.5457 34.3493ZM53.6362 16.7339H57.5249C58.6859 16.7339 59.67 16.7744 60.4567 16.8455C61.2369 16.9253 62.076 17.1223 62.6204 17.4319C63.0798 17.6945 63.4137 18.0424 63.6177 18.4636C63.8272 18.8914 63.9319 19.4231 63.9319 20.0478C63.9319 20.8049 63.8206 21.469 63.5915 22.0204C63.3678 22.5663 62.9816 23.0203 62.4437 23.3628C61.8992 23.7107 61.3024 23.9404 60.6662 24.052C60.0236 24.1647 58.975 24.2172 57.8861 24.2172H53.6362V16.7339ZM68.2146 27.3605C67.1911 26.1701 65.7814 25.3737 64.0236 24.9995V24.9535C65.0733 24.4207 65.992 23.7107 66.6205 22.8365C67.2631 21.9493 67.5915 20.8563 67.5915 19.5948C67.5915 18.4767 67.3024 17.5041 66.8638 16.7011C66.4241 15.8991 65.7028 15.2285 64.7317 14.7154C63.8534 14.269 62.9292 13.9659 61.9712 13.8215C61.0208 13.6837 59.5653 13.6104 57.6504 13.6104H49.7812V40.1423H59.1845C61.0078 40.1423 62.5353 39.9782 63.7225 39.6424C64.9096 39.3141 66.0116 38.7485 67.0078 37.9663C67.8469 37.3153 68.5288 36.4674 69.0275 35.4609C69.525 34.4554 69.7749 33.2717 69.7749 31.9555C69.7683 30.1087 69.2511 28.5628 68.2146 27.3605Z" fill="white"/>
<path fill-rule="evenodd" clip-rule="evenodd" d="M85.7119 35.1849C84.8467 35.8686 83.8952 36.4343 82.899 36.8741C81.8952 37.315 80.9514 37.5447 80.1047 37.5447C79.1543 37.5447 78.42 37.4266 77.9214 37.1968C77.4293 36.9671 77.0234 36.5918 76.7157 36.0853C76.4134 35.5853 76.217 34.9803 76.1254 34.2779C76.0326 33.5668 75.9868 32.7057 75.9868 31.7058V20.3374H72.5312V33.1193C72.5312 35.5853 73.1215 37.4802 74.2814 38.7559C75.4434 40.0381 77.0888 40.6814 79.174 40.6814C80.4146 40.6814 81.5679 40.4385 82.5979 39.9648C83.5875 39.5042 84.6372 38.8478 85.7185 37.9988V40.13H89.1151V20.3374H85.7185V35.1849H85.7119Z" fill="white"/>
<path fill-rule="evenodd" clip-rule="evenodd" d="M98.8405 20.87C97.8825 21.3502 96.7161 22.034 95.4438 23.0526V20.3437H91.9883V40.1352H95.4438V25.9201C96.3091 25.2166 97.2267 24.6313 98.1651 24.1839C99.1089 23.7375 100.1 23.5066 101.109 23.5066C101.739 23.5066 102.296 23.5657 102.755 23.6182C103.215 23.6707 103.653 23.7889 104.146 23.9081L104 20.3371C103.995 20.3371 101.182 19.6927 98.8405 20.87Z" fill="white"/>
<path fill-rule="evenodd" clip-rule="evenodd" d="M121.344 34.3555C121.344 36.1772 120.585 37.6902 119.082 38.8598C117.588 40.0239 115.581 40.6092 112.997 40.6092C111.535 40.6092 110.178 40.4319 108.957 40.0829C107.737 39.735 106.702 39.3466 105.876 38.9331L105.836 38.9123V35.0656H106.098L106.118 35.0787C107.154 35.8621 108.327 36.4933 109.6 36.9594C110.872 37.42 112.105 37.6574 113.273 37.6574C114.715 37.6574 115.725 37.42 116.538 36.9594C117.338 36.4999 117.745 35.7702 117.745 34.7833C117.745 34.0273 117.529 33.4486 117.094 33.0602C116.656 32.6663 115.928 32.325 114.677 32.0482C114.203 31.9431 113.588 31.8184 112.833 31.6729C112.072 31.5285 111.37 31.3775 110.747 31.2134C109.009 30.7528 107.56 30.0625 106.832 29.161C106.098 28.2605 105.73 27.1424 105.73 25.8339C105.73 25.0123 105.902 24.23 106.242 23.5003C106.584 22.7706 107.298 22.113 107.987 21.5474C108.649 20.9883 109.508 20.542 110.531 20.2127C111.554 19.8833 112.708 19.7192 113.974 19.7192C115.154 19.7192 116.361 19.8637 117.568 20.1536C118.708 20.4293 119.679 20.7586 120.459 21.1393V24.9007H120.374L120.355 24.8876C119.515 24.2694 118.479 23.7366 117.279 23.3088C116.08 22.8822 114.885 22.6644 113.731 22.6644C112.531 22.6644 111.508 22.8953 110.689 23.3559C109.876 23.8088 109.469 24.486 109.469 25.381C109.469 26.1698 109.718 26.7748 110.203 27.1763C110.689 27.5833 111.489 27.9192 112.584 28.1752C113.194 28.3131 113.882 28.4575 114.643 28.603C115.398 28.7408 116.033 28.8721 116.545 28.9903C118.093 29.3459 119.305 29.9706 120.144 30.8381C120.984 31.72 121.344 32.9026 121.344 34.3555Z" fill="white"/>
<path fill-rule="evenodd" clip-rule="evenodd" d="M134.999 23.2633V20.3312H128.139V14.5054H124.677V20.3312H122.434V23.2633H124.677V33.6C124.677 36.0058 125.168 37.8011 126.224 38.8996C127.28 39.998 128.886 40.5297 130.913 40.5297C131.49 40.5297 132.159 40.4772 132.893 40.3733C133.627 40.2672 134.323 40.1293 134.945 39.9652L134.991 39.9521V36.8417H134.736L134.723 36.8482C134.468 36.9533 134.041 37.0845 133.457 37.2421C132.874 37.4007 132.309 37.4795 131.779 37.4795C130.86 37.4795 130.172 37.3734 129.733 37.1567C129.293 36.9467 128.945 36.6042 128.69 36.1436C128.415 35.6448 128.25 35.1054 128.205 34.5343C128.159 33.9544 128.132 33.1328 128.132 32.1V23.2633H134.999Z" fill="white"/>
</g>
<mask id="path-7-inside-1_28365_16337" fill="white">
<path d="M150.762 7.73877H259.001V50.2612H150.762V7.73877Z"/>
</mask>
<path d="M150.762 50.2612H151.728V7.73877H150.762H149.795V50.2612H150.762Z" fill="white" fill-opacity="0.3" mask="url(#path-7-inside-1_28365_16337)"/>
<path d="M172.269 45.2319C171.495 45.2319 170.779 45.0876 170.119 44.799C169.46 44.5 168.882 44.0877 168.387 43.562C167.903 43.0362 167.522 42.4229 167.243 41.7219C166.975 41.0106 166.841 40.2478 166.841 39.4334C166.841 38.6191 166.975 37.8614 167.243 37.1604C167.522 36.4594 167.903 35.8512 168.387 35.3358C168.882 34.8101 169.46 34.4029 170.119 34.1143C170.779 33.8153 171.495 33.6659 172.269 33.6659C173.145 33.6659 173.954 33.8514 174.696 34.2225C175.438 34.5833 176.057 35.0987 176.552 35.7688C177.057 36.4285 177.382 37.2017 177.526 38.0882H176.304C176.191 37.4284 175.944 36.846 175.562 36.3409C175.181 35.8255 174.707 35.4234 174.14 35.1348C173.583 34.8462 172.959 34.7019 172.269 34.7019C171.65 34.7019 171.083 34.8204 170.568 35.0575C170.052 35.2946 169.604 35.6245 169.222 36.0471C168.841 36.4698 168.547 36.9697 168.341 37.547C168.135 38.1243 168.032 38.7531 168.032 39.4334C168.032 40.1241 168.135 40.7581 168.341 41.3353C168.547 41.9126 168.841 42.4177 169.222 42.8507C169.604 43.2733 170.052 43.6032 170.568 43.8403C171.083 44.0774 171.65 44.1959 172.269 44.1959C172.959 44.1959 173.588 44.0516 174.155 43.763C174.722 43.464 175.191 43.0569 175.562 42.5414C175.944 42.026 176.191 41.4436 176.304 40.7941H177.526C177.382 41.6704 177.062 42.4435 176.567 43.1136C176.072 43.7836 175.449 44.3042 174.696 44.6753C173.954 45.0464 173.145 45.2319 172.269 45.2319ZM182.59 45.1546C182.033 45.1546 181.518 45.0515 181.043 44.8454C180.569 44.6392 180.157 44.3454 179.806 43.964C179.466 43.5826 179.198 43.1342 179.002 42.6187C178.817 42.1033 178.724 41.5364 178.724 40.9179C178.724 40.3097 178.817 39.7478 179.002 39.2324C179.198 38.717 179.466 38.2737 179.806 37.9026C180.157 37.5212 180.569 37.2274 181.043 37.0213C181.518 36.8151 182.033 36.712 182.59 36.712C183.157 36.712 183.677 36.8151 184.151 37.0213C184.626 37.2274 185.033 37.5212 185.373 37.9026C185.723 38.2737 185.991 38.717 186.177 39.2324C186.373 39.7478 186.471 40.3097 186.471 40.9179C186.471 41.5364 186.373 42.1033 186.177 42.6187C185.991 43.1342 185.723 43.5826 185.373 43.964C185.033 44.3454 184.626 44.6392 184.151 44.8454C183.677 45.0515 183.157 45.1546 182.59 45.1546ZM182.59 44.2269C183.126 44.2269 183.6 44.0929 184.012 43.8248C184.435 43.5465 184.765 43.1599 185.002 42.6651C185.249 42.1703 185.373 41.5879 185.373 40.9179C185.373 40.2478 185.249 39.6705 185.002 39.186C184.765 38.7015 184.435 38.3253 184.012 38.0573C183.6 37.7892 183.126 37.6552 182.59 37.6552C182.064 37.6552 181.59 37.7892 181.167 38.0573C180.755 38.3253 180.425 38.7015 180.177 39.186C179.94 39.6705 179.822 40.2478 179.822 40.9179C179.822 41.5879 179.94 42.1703 180.177 42.6651C180.425 43.1599 180.755 43.5465 181.167 43.8248C181.59 44.0929 182.064 44.2269 182.59 44.2269ZM189.303 45H188.221V36.8512H189.226V38.382C189.505 37.8562 189.87 37.4439 190.324 37.145C190.788 36.846 191.308 36.6965 191.886 36.6965C192.525 36.6965 193.066 36.8615 193.509 37.1913C193.963 37.5212 194.272 37.9851 194.437 38.583C194.685 38.0057 195.056 37.547 195.55 37.2068C196.045 36.8666 196.612 36.6965 197.251 36.6965C198.097 36.6965 198.762 36.9646 199.246 37.5006C199.741 38.0263 199.988 38.7634 199.988 39.7118V45H198.921V40.0674C198.921 39.284 198.746 38.6861 198.396 38.2737C198.055 37.8511 197.555 37.6398 196.896 37.6398C196.483 37.6398 196.107 37.7532 195.767 37.9799C195.427 38.1964 195.154 38.5005 194.947 38.8922C194.752 39.2737 194.654 39.7169 194.654 40.222V45H193.571V40.0674C193.571 39.284 193.401 38.6861 193.061 38.2737C192.721 37.8511 192.216 37.6398 191.546 37.6398C191.133 37.6398 190.752 37.7532 190.401 37.9799C190.061 38.1964 189.793 38.5005 189.597 38.8922C189.401 39.2737 189.303 39.7169 189.303 40.222V45ZM209.733 40.9179C209.733 41.7528 209.583 42.4899 209.284 43.129C208.996 43.7681 208.583 44.2681 208.047 44.6289C207.522 44.9794 206.893 45.1546 206.161 45.1546C205.553 45.1546 205.001 44.9948 204.506 44.6753C204.012 44.3557 203.625 43.9073 203.347 43.33V47.9843H202.264V36.8512H203.269V38.6139C203.548 38.0057 203.945 37.5367 204.46 37.2068C204.975 36.8666 205.542 36.6965 206.161 36.6965C206.883 36.6965 207.511 36.8769 208.047 37.2377C208.583 37.5882 208.996 38.083 209.284 38.7221C209.583 39.351 209.733 40.0829 209.733 40.9179ZM208.635 40.9179C208.635 39.887 208.388 39.0829 207.893 38.5057C207.408 37.9284 206.769 37.6398 205.975 37.6398C205.481 37.6398 205.032 37.7686 204.63 38.0263C204.228 38.284 203.909 38.6551 203.671 39.1396C203.445 39.6241 203.331 40.2169 203.331 40.9179C203.331 41.5879 203.445 42.1703 203.671 42.6651C203.898 43.1599 204.213 43.5414 204.615 43.8094C205.017 44.0774 205.47 44.2114 205.975 44.2114C206.769 44.2114 207.408 43.9228 207.893 43.3455C208.388 42.7682 208.635 41.959 208.635 40.9179ZM216.485 45V43.5156C216.248 44.0207 215.893 44.4227 215.419 44.7217C214.944 45.0103 214.388 45.1546 213.749 45.1546C212.903 45.1546 212.228 44.9381 211.723 44.5052C211.218 44.0619 210.965 43.4743 210.965 42.7424C210.965 41.9487 211.28 41.3508 211.908 40.9488C212.537 40.5364 213.47 40.3303 214.707 40.3303C214.955 40.3303 215.197 40.3354 215.434 40.3457C215.671 40.356 215.985 40.3818 216.377 40.423V39.7272C216.377 39.0469 216.202 38.516 215.851 38.1346C215.511 37.7532 215.032 37.5624 214.413 37.5624C213.754 37.5624 213.228 37.7583 212.836 38.15C212.445 38.5314 212.244 39.052 212.233 39.7118H211.244C211.254 39.1036 211.393 38.5778 211.661 38.1346C211.929 37.681 212.295 37.3305 212.759 37.0831C213.233 36.8254 213.779 36.6965 214.398 36.6965C215.357 36.6965 216.099 36.9594 216.625 37.4851C217.15 38.0109 217.413 38.7479 217.413 39.6963V45H216.485ZM212.001 42.7115C212.001 43.2063 212.177 43.6084 212.527 43.9176C212.877 44.2166 213.336 44.366 213.903 44.366C214.666 44.366 215.269 44.1392 215.712 43.6857C216.156 43.2218 216.377 42.6084 216.377 41.8456V41.1189C216.027 41.0879 215.723 41.0673 215.465 41.057C215.218 41.0467 214.98 41.0416 214.754 41.0416C213.836 41.0416 213.146 41.1807 212.682 41.459C212.228 41.7271 212.001 42.1446 212.001 42.7115ZM220.772 40.253V45H219.69V36.8512H220.695V38.382C220.963 37.8872 221.329 37.4851 221.793 37.1759C222.267 36.8563 222.798 36.6965 223.386 36.6965C224.231 36.6965 224.906 36.9594 225.411 37.4851C225.927 38.0109 226.184 38.7531 226.184 39.7118V45H225.102V40.0829C225.102 39.2994 224.927 38.6964 224.576 38.2737C224.236 37.8511 223.731 37.6398 223.061 37.6398C222.638 37.6398 222.252 37.7532 221.901 37.9799C221.551 38.1964 221.272 38.5005 221.066 38.8922C220.87 39.284 220.772 39.7375 220.772 40.253ZM234.439 36.8512L230.264 47.9843H229.105L230.295 44.8918L227.063 36.8512H228.223L230.852 43.5929L233.341 36.8512H234.439Z" fill="white"/>
<path d="M168.929 19.7185H174.294L174.619 20.6617H168.465L168.929 19.7185ZM175.299 23.7388L171.557 13.8736L167.784 23.7388H166.64L170.954 12.6366H172.222L176.521 23.7388H175.299Z" fill="white"/>
<path d="M240.283 20.8893H235.422V18.9131H240.283V20.8893Z" fill="white"/>
<path d="M233.813 24.2836H231.391V12.8408H233.813V24.2836Z" fill="white"/>
<path d="M222.772 19.9009L224.339 15.4864L225.875 19.9009H222.772ZM222.087 21.8293H226.546L227.399 24.2836H229.997L225.726 12.8408H223.08L218.777 24.2836H221.216L222.087 21.8293Z" fill="white"/>
<path d="M208.996 19.6459V24.2836H206.781V12.8408H208.996V16.8888C209.283 16.4957 209.618 16.1876 210.001 15.9645C210.394 15.7307 210.872 15.6139 211.435 15.6139C212.295 15.6139 212.991 15.8901 213.523 16.4426C214.054 16.9844 214.319 17.7654 214.319 18.7853V24.2836H212.12V19.5344C212.12 18.8969 211.993 18.4135 211.738 18.0841C211.493 17.7441 211.121 17.5741 210.622 17.5741C210.325 17.5741 210.048 17.6538 209.793 17.8132C209.549 17.9619 209.352 18.1903 209.204 18.4985C209.066 18.796 208.996 19.1784 208.996 19.6459Z" fill="white"/>
<path d="M200.734 27.5187C199.98 27.5187 199.31 27.3859 198.726 27.1203C198.142 26.8653 197.685 26.4934 197.355 26.0047C197.026 25.5266 196.845 24.9635 196.814 24.3154H198.949C199.002 24.8041 199.178 25.1707 199.475 25.415C199.773 25.67 200.187 25.7975 200.718 25.7975C201.334 25.7975 201.797 25.6382 202.105 25.3194C202.423 25.0007 202.583 24.5332 202.583 23.917V22.6739C202.349 23.0776 202.025 23.3963 201.611 23.6301C201.196 23.8532 200.729 23.9648 200.208 23.9648C199.518 23.9648 198.896 23.7841 198.344 23.4229C197.791 23.0617 197.355 22.5676 197.037 21.9408C196.718 21.3033 196.559 20.5861 196.559 19.7893C196.559 18.9605 196.707 18.2328 197.005 17.6059C197.313 16.979 197.733 16.4903 198.264 16.1397C198.806 15.7891 199.427 15.6138 200.128 15.6138C200.702 15.6138 201.207 15.7253 201.643 15.9484C202.078 16.1609 202.45 16.4903 202.758 16.9365V15.7731H204.782V23.8851C204.782 25.0219 204.421 25.9091 203.698 26.5466C202.987 27.1947 201.998 27.5187 200.734 27.5187ZM198.774 19.7893C198.774 20.4799 198.944 21.0324 199.284 21.4467C199.624 21.8505 200.075 22.0523 200.638 22.0523C201.032 22.0523 201.372 21.962 201.658 21.7814C201.945 21.5902 202.168 21.3245 202.328 20.9845C202.487 20.6446 202.567 20.2514 202.567 19.8052C202.567 19.1146 202.392 18.5621 202.041 18.1478C201.69 17.7334 201.223 17.5262 200.638 17.5262C200.075 17.5262 199.624 17.7334 199.284 18.1478C198.944 18.5515 198.774 19.0987 198.774 19.7893Z" fill="white"/>
<path d="M195.211 24.3147H193.02V17.5415H195.211V24.3147Z" fill="white"/>
<path d="M183.387 24.2836H180.965V12.8408H183.387V17.351H188.344V12.8408H190.766V24.2836H188.344V19.4387H183.387V24.2836Z" fill="white"/>
<path d="M251.764 18.5923C251.764 16.4436 250.022 14.7018 247.873 14.7018C245.724 14.7018 243.983 16.4436 243.983 18.5923C243.983 20.7409 245.724 22.4828 247.873 22.4828C248.36 22.4828 248.827 22.3926 249.257 22.2289C248.495 21.5299 247.799 20.4389 247.799 18.932H249.93C249.93 19.7385 250.295 20.3022 250.732 20.6901C250.822 20.7697 250.914 20.8401 251.003 20.9021C251.481 20.2561 251.764 19.4573 251.764 18.5923ZM253.895 18.5923C253.895 21.9179 251.199 24.6138 247.873 24.6138C244.547 24.6138 241.852 21.9179 241.852 18.5923C241.852 15.2667 244.547 12.5708 247.873 12.5708C251.199 12.5708 253.895 15.2667 253.895 18.5923Z" fill="white"/>
<path d="M194.062 13.0302C194.087 12.9782 194.161 12.9782 194.187 13.0302L194.461 13.5967C194.653 13.9911 194.971 14.3097 195.366 14.5011L195.932 14.7759C195.984 14.8012 195.984 14.8752 195.932 14.9004L195.366 15.1752C194.971 15.3666 194.653 15.6852 194.461 16.0797L194.187 16.6462C194.161 16.6981 194.087 16.6981 194.062 16.6462L193.787 16.0797C193.596 15.6852 193.277 15.3666 192.883 15.1752L192.316 14.9004C192.264 14.8752 192.264 14.8012 192.316 14.7759L192.883 14.5011C193.277 14.3097 193.596 13.9911 193.787 13.5967L194.062 13.0302Z" fill="white"/>
<path d="M253.429 23.2226C253.454 23.1706 253.528 23.1706 253.554 23.2226L253.829 23.789C254.02 24.1835 254.339 24.5021 254.733 24.6935L255.299 24.9683C255.351 24.9935 255.351 25.0676 255.299 25.0928L254.733 25.3676C254.339 25.559 254.02 25.8776 253.829 26.2721L253.554 26.8385C253.528 26.8905 253.454 26.8905 253.429 26.8385L253.154 26.2721C252.963 25.8776 252.644 25.559 252.25 25.3676L251.683 25.0928C251.632 25.0676 251.632 24.9935 251.683 24.9683L252.25 24.6935C252.644 24.5021 252.963 24.1835 253.154 23.789L253.429 23.2226Z" fill="white"/>
<path d="M253.896 12.3972H253.476V10.0472H252.582V9.67139H254.79V10.0472H253.896V12.3972Z" fill="white"/>
<path d="M256.414 12.3972L255.547 10.313V12.3972H255.161V9.67139H255.677L256.597 11.8847L257.514 9.67139H258.034V12.3972H257.644V10.3092L256.773 12.3972H256.414Z" fill="white"/>
<defs>
<clipPath id="clip0_28365_16337">
<rect width="135.298" height="57.9851" fill="white" transform="translate(0 0.00732422)"/>
</clipPath>
</defs>
</svg>
